<svg xmlns="http://www.w3.org/2000/svg" viewBox="0 0 41.2 59"><title>advantage-8</title><g id="a52c58d5-d23e-4de7-8d33-ed0a2cb0de16" data-name="Layer 2"><g id="043aacf3-3f5a-40e1-966d-e1e95586630a" data-name="Layer 1"><path d="M28.37,19.33,40,0H27.63L16.73,18.18a20.6,20.6,0,1,0,11.64,1.15ZM20.6,54.52A16.12,16.12,0,1,1,36.72,38.4,16.14,16.14,0,0,1,20.6,54.52Zm0-30.24A14.12,14.12,0,1,0,34.72,38.4,14.14,14.14,0,0,0,20.6,24.28ZM27,40.51l1.16,6.77a1,1,0,0,1-1.45,1.05l-6.08-3.2-6.08,3.2a1,1,0,0,1-1.45-1.05l1.16-6.77L9.3,35.72A1,1,0,0,1,9.86,34l6.8-1,3-6.16a1,1,0,0,1,1.79,0l3,6.16,6.8,1a1,1,0,0,1,.55,1.71ZM19.2,10,13.77,0H1.43L14.2,18Z" style="fill:#fff"/></g></g></svg>