<svg xmlns="http://www.w3.org/2000/svg" viewBox="0 0 58.99 60"><title>advantage-9</title><g id="678e5f32-e160-4689-be35-f14d55b498a8" data-name="Layer 2"><g id="06ae3b8e-a7dd-47d4-beed-be76b5d8a15b" data-name="Layer 1"><path d="M59,12.11a1.1,1.1,0,0,0-.09-.43,1.24,1.24,0,0,0,0-.29l-4.12-9A4.13,4.13,0,0,0,51,0H9A4.11,4.11,0,0,0,5.25,2.39L1.19,11.22l-.05.14a1.28,1.28,0,0,0,0,.42,1.27,1.27,0,0,0-.1.5V19a8,8,0,0,0,1,3.86v7.35A3.75,3.75,0,0,0,1.07,32a3.94,3.94,0,0,0,.1,1.83A1.29,1.29,0,0,1,1,34.94a5.79,5.79,0,0,0-.53,5.37A3.62,3.62,0,0,0,.84,41a1.33,1.33,0,0,1,.22,1.1,4.13,4.13,0,0,0-.11.63,8.26,8.26,0,0,0,.25,2.46,4.42,4.42,0,0,0,1.21,2.55A2.61,2.61,0,0,0,4,48.37V52H1.08A1.07,1.07,0,0,0,0,53.25L1.15,60H58V22.86A8,8,0,0,0,59,19ZM8.29,25l-.24,0-.44-.09-.28-.07-.39-.13-.27-.1a5.59,5.59,0,0,1-.55-.27l-.27-.16-.32-.21-.23-.17-.39-.33-.11-.1a6,6,0,0,1-.49-.55h0a6.23,6.23,0,0,1-.43-.63l-.11-.17,0-.06A6,6,0,0,1,3,19V13H15v6a6,6,0,0,1-6,6A6.07,6.07,0,0,1,8.29,25ZM31,13H43v6a6,6,0,0,1-12,0ZM51,2a2.12,2.12,0,0,1,1.92,1.23L56.49,11H44.83L44,6.46,43.19,2ZM18.83,2H29v9H17.19L18,6.5ZM3.16,44.8a6.62,6.62,0,0,1-.21-1.87A2.13,2.13,0,0,1,3,42.6a3.35,3.35,0,0,0-.56-2.78,1.71,1.71,0,0,1-.18-.32,3.77,3.77,0,0,1,.35-3.45,3.26,3.26,0,0,0,.47-2.75,2,2,0,0,1-.05-.9,1.74,1.74,0,0,1,.52-1l.07-.05a1.35,1.35,0,0,1,.25-.17l.91-.74L5,30.34l.18-.07h0a1.64,1.64,0,0,1,.42-.05l.32,0a2.49,2.49,0,0,1,1,.35l.22.18a2.42,2.42,0,0,1,.26.25,1.67,1.67,0,0,1,.2.28,1.64,1.64,0,0,1,.13,1.05,3,3,0,0,0,.62,2.56,1.22,1.22,0,0,1,.25.52,2,2,0,0,1,0,.39,4.13,4.13,0,0,1-.34,1.48,5.62,5.62,0,0,1-.66,1.24A3.23,3.23,0,0,0,7.08,41a3.86,3.86,0,0,0,.26.88,2.64,2.64,0,0,1,.2.89,2.68,2.68,0,0,1-.1.91,3.24,3.24,0,0,1-.18.45,3.59,3.59,0,0,1-.55.82l0,0a4.42,4.42,0,0,1-.33.33,5.44,5.44,0,0,1-1.11.76,3.36,3.36,0,0,1-.55.23h0a1.79,1.79,0,0,1-.49.08.63.63,0,0,1-.44-.14A3,3,0,0,1,3.16,44.8ZM6,47.93l.17-.08a7.45,7.45,0,0,0,1.14-.72L8.71,52H6ZM7.15,58H2.84l-.67-4H7.81ZM49,47V44a1,1,0,1,1,2,0v3a1,1,0,1,1-2,0Zm7,11H54V29H36V58H9.18l.67-4H34V29H8.11a4.48,4.48,0,0,0-1.91-.74,4.11,4.11,0,0,0-.74,0H5.29a3.75,3.75,0,0,0-.63.1H4.6a3,3,0,0,0-.61.23V25.25a7.87,7.87,0,0,0,1.89,1.12h0c.22.09.45.18.68.25l.12,0,.59.15.18,0,.57.09.2,0c.25,0,.51,0,.77,0a7.84,7.84,0,0,0,1-.07l.28,0q.37-.06.73-.15l.25-.06a7.71,7.71,0,0,0,.9-.32l.13-.06q.37-.17.72-.37l.24-.14q.32-.2.61-.43l.17-.13a8.13,8.13,0,0,0,.69-.63l.14-.16q.25-.27.48-.57l.17-.22c.16-.22.3-.44.44-.68l.06-.1.06.1c.13.23.28.46.44.68l.17.22q.23.29.48.57l.14.16a8.11,8.11,0,0,0,.69.63l.17.13q.3.23.61.43l.24.14q.35.2.72.37l.13.06a7.72,7.72,0,0,0,.9.32l.25.06q.36.09.73.15l.28,0a7.23,7.23,0,0,0,2,0l.28,0q.37-.06.73-.15l.25-.06a7.71,7.71,0,0,0,.9-.32l.13-.06q.37-.17.72-.37l.24-.14q.32-.2.61-.43l.17-.13a8.11,8.11,0,0,0,.69-.63l.14-.16q.25-.27.48-.57l.17-.22a8.06,8.06,0,0,0,.44-.68l.06-.1.06.1a8.06,8.06,0,0,0,.44.68l.17.22q.23.29.48.57l.14.16a8.13,8.13,0,0,0,.69.63l.17.13q.3.23.61.43l.24.14q.35.2.72.37l.13.06a7.73,7.73,0,0,0,.9.32l.25.06q.36.09.73.15l.28,0a7.23,7.23,0,0,0,2,0l.28,0q.37-.06.73-.15l.25-.06a7.71,7.71,0,0,0,.9-.32l.13-.06q.37-.17.72-.37l.24-.14q.32-.2.61-.43l.17-.13a8.13,8.13,0,0,0,.69-.63l.14-.16q.25-.27.48-.57l.17-.22c.16-.22.3-.44.44-.68l.06-.1.06.1c.13.23.28.46.44.68l.17.22q.23.29.48.57l.14.16a8.11,8.11,0,0,0,.69.63l.17.13q.3.23.61.43l.24.14q.35.2.72.37l.13.06a7.73,7.73,0,0,0,.9.32l.25.06q.36.09.73.15l.28,0A7.85,7.85,0,0,0,51,27c.26,0,.51,0,.77,0l.2,0,.57-.09.18,0,.59-.15.12,0c.23-.07.46-.15.68-.25h0A7.87,7.87,0,0,0,56,25.25ZM27.7,34.71l-3,3a1,1,0,1,1-1.41-1.41l3-3a1,1,0,1,1,1.41,1.41Zm.58,1.58A1,1,0,1,1,28,37,1,1,0,0,1,28.28,36.29ZM22.7,34.71l-4,4a1,1,0,1,1-1.41-1.41l4-4a1,1,0,0,1,1.41,1.41ZM23,39a1,1,0,0,1-1,1,1,1,0,0,1-1-1,1,1,0,1,1,2,0Zm-5.71,3.29,2-2a1,1,0,0,1,1.41,1.41l-2,2a1,1,0,1,1-1.41-1.41Zm0,5,9-9a1,1,0,1,1,1.41,1.41l-9,9a1,1,0,0,1-1.41-1.41Z" style="fill:#fff"/></g></g></svg>