<svg xmlns="http://www.w3.org/2000/svg" viewBox="0 0 58 53"><title>advantage-12</title><g id="899c2696-1c85-44c9-a02d-9ab055049eb1" data-name="Layer 2"><g id="ea277bb2-6a34-450e-8caa-d54052f81ac6" data-name="Layer 1"><path d="M57,48H55V42.36L52.64,44.1a7.24,7.24,0,0,1-11.14-1.7,7.23,7.23,0,0,1-12.5,0,7.23,7.23,0,0,1-12.5,0A7.24,7.24,0,0,1,5.36,44.1L3,42.36V48H1a1,1,0,0,0,0,2H57a1,1,0,0,0,0-2Zm-4,3H5a1,1,0,1,0,0,2H53a1,1,0,1,0,0-2ZM16.29,4.71a1,1,0,0,0,1.41,0l.79-.79.79.79a1,1,0,1,0,1.41-1.41l-.79-.79.79-.79A1,1,0,1,0,19.29.29l-.79.79L17.71.29a1,1,0,1,0-1.41,1.41l.79.79-.79.79A1,1,0,0,0,16.29,4.71Zm7,0a1,1,0,0,0,1.41,0l.79-.79.79.79a1,1,0,0,0,1.41-1.41l-.79-.79.79-.79A1,1,0,0,0,26.29.29l-.79.79L24.71.29a1,1,0,1,0-1.41,1.41l.79.79-.79.79A1,1,0,0,0,23.29,4.71Zm7,0a1,1,0,0,0,1.41,0l.79-.79.79.79a1,1,0,0,0,1.41-1.41l-.79-.79.79-.79A1,1,0,0,0,33.29.29l-.79.79L31.71.29a1,1,0,1,0-1.41,1.41l.79.79-.79.79A1,1,0,0,0,30.29,4.71Zm7,0a1,1,0,0,0,1.41,0l.79-.79.79.79a1,1,0,0,0,1.41-1.41l-.79-.79.79-.79A1,1,0,0,0,40.29.29l-.79.79L38.71.29a1,1,0,0,0-1.41,1.41l.79.79-.79.79A1,1,0,0,0,37.29,4.71ZM6.68,42.6a5.25,5.25,0,0,0,8.82-3.85,1,1,0,1,1,2,0,5.25,5.25,0,0,0,10.5,0,1,1,0,1,1,2,0,5.25,5.25,0,0,0,10.5,0,1,1,0,1,1,2,0,5.25,5.25,0,0,0,8.82,3.85l.09-.07L55,39.88V37a3,3,0,0,0-3-3H51V23a3,3,0,0,0-3-3H47V9a3,3,0,0,0-3-3H14a3,3,0,0,0-3,3V20H10a3,3,0,0,0-3,3V34H6a3,3,0,0,0-3,3v2.88l3.59,2.65ZM16,31a1,1,0,1,1-2,0V25a1,1,0,0,1,2,0Zm4,0a1,1,0,1,1-2,0V25a1,1,0,0,1,2,0Zm4,0a1,1,0,1,1-2,0V25a1,1,0,0,1,2,0Zm4,0a1,1,0,1,1-2,0V25a1,1,0,0,1,2,0Zm4,0a1,1,0,1,1-2,0V25a1,1,0,0,1,2,0Zm4,0a1,1,0,1,1-2,0V25a1,1,0,0,1,2,0Zm4,0a1,1,0,1,1-2,0V25a1,1,0,0,1,2,0Zm4,0a1,1,0,1,1-2,0V25a1,1,0,0,1,2,0Zm2-6a1,1,0,0,1,2,0v6a1,1,0,1,1-2,0ZM13,13l.25,0a6.21,6.21,0,0,0,5.25-2.89,6.21,6.21,0,0,0,10.5,0,6.21,6.21,0,0,0,10.5,0A6.21,6.21,0,0,0,44.75,13L45,13v2l-.25,0a6.21,6.21,0,0,0-5.25,2.89,6.21,6.21,0,0,0-10.5,0,6.21,6.21,0,0,0-10.5,0A6.21,6.21,0,0,0,13.25,15L13,15ZM10,25a1,1,0,0,1,2,0v6a1,1,0,1,1-2,0Z" style="fill:#fff"/></g></g></svg>