<svg xmlns="http://www.w3.org/2000/svg" viewBox="0 0 55.1 53.91"><title>advantage-11</title><g id="fd6042a4-75aa-48cc-a151-bf3eedfb9960" data-name="Layer 2"><g id="f2a5129b-beac-4601-affc-9a983632a05d" data-name="Layer 1"><path d="M29,33a3,3,0,0,0-3,3h2a1,1,0,1,1,2,0h2A3,3,0,0,0,29,33Zm8,1a3,3,0,0,0-3,3h2a1,1,0,1,1,2,0h2A3,3,0,0,0,37,34Zm7.52-3.8L48,17.26A1,1,0,0,0,48,17a2,2,0,0,0-2-2H44a2,2,0,0,0-1,.28V1a1,1,0,0,0-1-1H11a1,1,0,0,0-1,1V50a1,1,0,0,0,1,1H26.32A18.75,18.75,0,0,0,55.1,35.12V35C55.1,32,48.92,30.74,44.52,30.2Zm-9.17-15H39v3.66a5.34,5.34,0,0,1-5.34,5.34H30V20.57A5.34,5.34,0,0,1,35.34,15.23ZM23.41,9.59,26,7l2.59,2.59a5.34,5.34,0,0,1,0,7.55L26,19.73l-2.59-2.59A5.34,5.34,0,0,1,23.41,9.59ZM14,18.89V15.23h3.66A5.34,5.34,0,0,1,23,20.57v3.66H19.34A5.34,5.34,0,0,1,14,18.89Zm22.31,33a16.68,16.68,0,0,1-9.25-2.79l-.37-.26q-.43-.3-.84-.63l-.3-.24q-.53-.45-1-.94l-.18-.18c-.32-.33-.64-.67-.93-1l-.05-.06q-.48-.58-.91-1.21l-.1-.15a16.76,16.76,0,0,1-1.44-2.64l-.1-.23c-.19-.45-.36-.91-.51-1.38L20.25,40c-.13-.43-.24-.86-.34-1.3l-.06-.26c0-.23-.07-.46-.11-.7,3.84,2,11.77,2.6,16.56,2.6s12.72-.6,16.56-2.6A16.8,16.8,0,0,1,36.31,51.91Zm0-13.6C25.24,38.31,19.53,36,19.53,35s5.71-3.29,16.79-3.29c.59,0,1.16,0,1.73,0l-.19.74a1,1,0,0,0,.73,1.21,1,1,0,0,0,.25,0,1,1,0,0,0,1-.76L40.29,31h0L44,17.26A1,1,0,0,0,44,17h2L42.28,30.8h0l-.6,2.29a1,1,0,0,0,1.94.5L44,32.16c6.83.81,9.1,2.38,9.1,2.86C53.1,36,47.39,38.31,36.31,38.31ZM8,0H1A1,1,0,0,0,0,1V47a1,1,0,0,0,.6.92l7,3A1,1,0,0,0,8,51a1,1,0,0,0,1-1V1A1,1,0,0,0,8,0Z" style="fill:#fff"/></g></g></svg>