<svg xmlns="http://www.w3.org/2000/svg" viewBox="0 0 60 60"><title>advantage-10</title><g id="18c30f1d-c6f1-46ea-a7e6-4e77c4da66df" data-name="Layer 2"><g id="aada9d36-36ec-4af9-bf17-72a7c55d212d" data-name="Layer 1"><path d="M57.49,27H54V19.73A2.74,2.74,0,0,0,51.27,17H50V0H10V2H7V4H4v6H2.73A2.74,2.74,0,0,0,0,12.73V58H.06a2.56,2.56,0,0,0,2.51,2H47.32a2.54,2.54,0,0,0,2.45-1.81L60,30.15V30C60,28.25,58.94,27,57.49,27ZM18,5H28a1,1,0,1,1,0,2H18a1,1,0,1,1,0-2Zm0,7H42a1,1,0,0,1,0,2H18a1,1,0,0,1,0-2Zm0,7H42a1,1,0,1,1,0,2H18a1,1,0,1,1,0-2ZM2,51.53V12.73A.73.73,0,0,1,2.73,12H4V46ZM6,6H7V37.81L6,40.55ZM52,27H12.73a2.54,2.54,0,0,0-2.45,1.81L9,32.33V4h1V26H50V19h1.27a.73.73,0,0,1,.73.73Z" style="fill:#fff"/></g></g></svg>