<svg xmlns="http://www.w3.org/2000/svg" xmlns:xlink="http://www.w3.org/1999/xlink" viewBox="0 0 24 24"><defs><clipPath id="b0547a46-f165-4ea4-a7c9-7f5c69c37d2e"><rect width="24" height="24" style="fill:none"/></clipPath></defs><title>advantage-5</title><g id="58a2a10f-413a-4631-bdeb-4bc3398160e5" data-name="Layer 2"><g id="561a8429-282c-456b-a8fe-94510512bfcc" data-name="Layer 1"><g style="clip-path:url(#b0547a46-f165-4ea4-a7c9-7f5c69c37d2e)"><path d="M19,0H0V1c0,4.9,2.79,9.52,5,10.7V12a7,7,0,0,0,6,6.92V22H7v2H17V22H13V18.92A7,7,0,0,0,19,12v-.3c2.21-1.18,5-5.81,5-10.7V0ZM5,9.16A12.83,12.83,0,0,1,2,2H5Zm14,0V2h3a12.83,12.83,0,0,1-3,7.16" style="fill:#fff"/></g></g></g></svg>