<svg xmlns="http://www.w3.org/2000/svg" xmlns:xlink="http://www.w3.org/1999/xlink" width="58" height="55.91" viewBox="0 0 58 55.91">
  <metadata><?xpacket begin="﻿" id="W5M0MpCehiHzreSzNTczkc9d"?>
<x:xmpmeta xmlns:x="adobe:ns:meta/" x:xmptk="Adobe XMP Core 5.6-c138 79.159824, 2016/09/14-01:09:01        ">
   <rdf:RDF xmlns:rdf="http://www.w3.org/1999/02/22-rdf-syntax-ns#">
      <rdf:Description rdf:about=""/>
   </rdf:RDF>
</x:xmpmeta>
                                                                                                    
                                                                                                    
                                                                                                    
                                                                                                    
                                                                                                    
                                                                                                    
                                                                                                    
                                                                                                    
                                                                                                    
                                                                                                    
                                                                                                    
                                                                                                    
                                                                                                    
                                                                                                    
                                                                                                    
                                                                                                    
                                                                                                    
                                                                                                    
                                                                                                    
                                                                                                    
                           
<?xpacket end="w"?></metadata>
<defs>
    <style>
      .cls-1 {
        fill: #616379;
        fill-rule: evenodd;
        filter: url(#filter);
      }
    </style>
    <filter id="filter" x="921" y="3326" width="58" height="55.91" filterUnits="userSpaceOnUse">
      <feFlood result="flood" flood-color="#fff"/>
      <feComposite result="composite" operator="in" in2="SourceGraphic"/>
      <feBlend result="blend" in2="SourceGraphic"/>
    </filter>
  </defs>
  <path id="Chef_Hat" data-name="Chef Hat" class="cls-1" d="M931.609,3358.59a3.64,3.64,0,0,1,2.746,3.18l0.834,8.76,1.687,0.99a26.488,26.488,0,0,0,26.266-.01l1.675-1.04,0.828-8.7a3.638,3.638,0,0,1,2.746-3.18,14,14,0,1,0-7.231-27.04,14,14,0,0,0-22.32,0,13.83,13.83,0,0,0-5.608-.44A14.005,14.005,0,0,0,931.609,3358.59ZM948,3371a1,1,0,0,1-2,0v-8a1,1,0,0,1,2,0v8Zm6,0a1,1,0,0,1-2,0v-8a1,1,0,0,1,2,0v8Zm5.008-10.12a1,1,0,0,1,1.984.24l-1,8a1,1,0,0,1-.991.88,0.532,0.532,0,0,1-.125-0.01,1,1,0,0,1-.868-1.11Zm-14.619-28.67a9.572,9.572,0,0,1,11.184-.03A1,1,0,0,1,955,3334a1.01,1.01,0,0,1-.572-0.18,7.623,7.623,0,0,0-8.816-.03A1,1,0,1,1,944.389,3332.21Zm-4.513,27.8a1.009,1.009,0,0,1,1.116.87l1,8a1,1,0,0,1-.868,1.11,0.532,0.532,0,0,1-.125.01,1,1,0,0,1-.991-0.88l-1-8A1,1,0,0,1,939.876,3360.01Zm-12.853-17.22c0.015-.07,1.64-6.86,9.988-6.79a1,1,0,0,1,.989,1.01,1.046,1.046,0,0,1-1.011.99c-6.8-.12-8,5.16-8.013,5.21a1,1,0,0,1-.975.79,1.577,1.577,0,0,1-.215-0.02A1,1,0,0,1,927.023,3342.79Zm37.135,30.44a28.462,28.462,0,0,1-28.277.02l-0.458-.26,0.249,2.62c0.108,1.13.926,2.21,2.428,3.22l0.383,0.24c0.247,0.15.485,0.29,0.7,0.4,0.541,0.29.932,0.45,0.932,0.45a25.413,25.413,0,0,0,19.764,0s0.392-.16.94-0.45c0.213-.11.451-0.25,0.7-0.4l0.379-.24c1.5-1.01,2.321-2.09,2.429-3.22l0.251-2.64Z" transform="translate(-921 -3326)"/>
</svg>
