<svg xmlns="http://www.w3.org/2000/svg" xmlns:xlink="http://www.w3.org/1999/xlink" viewBox="0 0 197.35 184.95"><defs><clipPath id="3a1b89f2-3776-4bdc-9a7e-c34947973fc1" transform="translate(0 0)"><rect width="197.35" height="184.95" style="fill:none"/></clipPath></defs><title>circle-check-mark</title><g id="438ea8f7-70df-4c2d-94ae-a79a0ef94f01" data-name="Layer 2"><g id="12dde2ac-8194-4de4-a955-244f60fc12da" data-name="Layer 1"><g style="clip-path:url(#3a1b89f2-3776-4bdc-9a7e-c34947973fc1)"><path d="M194.11,11a11.14,11.14,0,0,0-15.7,0L89,100.36l-25-25a11.1,11.1,0,0,0-15.7,15.7L81,123.73l.08.07.11.12a11.14,11.14,0,0,0,15.7,0l97.25-97.24a11.14,11.14,0,0,0,0-15.71" transform="translate(0 0)" style="fill:#77a008"/><path d="M165.28,78.56a74.2,74.2,0,1,1-31.74-47.76,9.16,9.16,0,0,0,11.55-1.17l0,0a9.21,9.21,0,0,0-1.45-14.18A92.49,92.49,0,0,0,27.09,157.87,92.48,92.48,0,0,0,185,92.48,93.4,93.4,0,0,0,183.31,75a9.19,9.19,0,1,0-18,3.55" transform="translate(0 0)" style="fill:#77a008"/></g></g></g></svg>