<svg xmlns="http://www.w3.org/2000/svg" width="381" height="381" viewBox="0 0 381 381">
  <metadata><?xpacket begin="﻿" id="W5M0MpCehiHzreSzNTczkc9d"?>
<x:xmpmeta xmlns:x="adobe:ns:meta/" x:xmptk="Adobe XMP Core 5.6-c138 79.159824, 2016/09/14-01:09:01        ">
   <rdf:RDF xmlns:rdf="http://www.w3.org/1999/02/22-rdf-syntax-ns#">
      <rdf:Description rdf:about=""/>
   </rdf:RDF>
</x:xmpmeta>
                                                                                                    
                                                                                                    
                                                                                                    
                                                                                                    
                                                                                                    
                                                                                                    
                                                                                                    
                                                                                                    
                                                                                                    
                                                                                                    
                                                                                                    
                                                                                                    
                                                                                                    
                                                                                                    
                                                                                                    
                                                                                                    
                                                                                                    
                                                                                                    
                                                                                                    
                                                                                                    
                           
<?xpacket end="w"?></metadata>
<defs>
    <style>
      .cls-1 {
        fill-rule: evenodd;
      }
    </style>
  </defs>
  <path id="Rounded_Rectangle_2_copy" data-name="Rounded Rectangle 2 copy" class="cls-1" d="M110,0H271A110,110,0,0,1,381,110V271A110,110,0,0,1,271,381H110A110,110,0,0,1,0,271V110A110,110,0,0,1,110,0Zm-4,35s44.168-2,88.667-2C234.4,33,275,35,275,35a70,70,0,0,1,70,70s2,45.305,2,89c0,40.7-2,80-2,80a70,70,0,0,1-70,70s-40.818,2-82.333,2c-42.96,0-86.667-2-86.667-2a70,70,0,0,1-70-70s-1-39.3-1-80c0-43.695,1-89,1-89A70,70,0,0,1,106,35ZM292,65a23,23,0,1,1-23,23A23,23,0,0,1,292,65ZM190.5,92A98.5,98.5,0,1,1,92,190.5,98.5,98.5,0,0,1,190.5,92Zm0,34A63.5,63.5,0,1,1,127,189.5,63.5,63.5,0,0,1,190.5,126Z"/>
</svg>
