<svg xmlns="http://www.w3.org/2000/svg" viewBox="0 0 335.65 336.03"><title>ljr</title><g id="a48d4fb4-9b68-4dd1-8de5-4ef1a1573cfd" data-name="Layer 2"><g id="bc531cc2-9422-4c82-a035-57eea2b8942e" data-name="Layer 1"><path d="M178.45,21.59A157,157,0,0,0,116,34.48L81.52,0h-.08A157.72,157.72,0,0,0,0,81.91l34.57,34.53A157.67,157.67,0,0,1,116,34.54h.06L243.89,162.18h0a157.82,157.82,0,0,0-81.43,81.91L34.57,116.48h0a155.32,155.32,0,0,0-13.32,62.32A157.2,157.2,0,1,0,178.45,21.59Zm27.27,231.78A91.77,91.77,0,0,1,253,205.78l12.39,59.93Z" style="fill:#fff"/></g></g></svg>