<svg xmlns="http://www.w3.org/2000/svg" xmlns:xlink="http://www.w3.org/1999/xlink" viewBox="0 0 335.67 336.03"><defs><clipPath id="b5caa5b3-b45a-41c3-81e7-577c6a1b2ceb"><rect x="0.01" width="335.65" height="336.01" style="fill:none"/></clipPath></defs><title>ljr</title><g id="78c6ed2a-91ca-4547-ac5f-9da6a3bffccf" data-name="Layer 2"><g id="d2ca229a-8777-4a43-8fdf-059f5eebe6d1" data-name="Layer 1"><rect x="0.01" width="335.65" height="336.01" style="fill:none"/><rect x="0.01" width="335.65" height="336.01" style="fill:none"/><path d="M178.45,21.59A157,157,0,0,0,116,34.48L81.52,0h-.08A157.72,157.72,0,0,0,0,81.91l34.57,34.53A157.67,157.67,0,0,1,116,34.54h.06L243.89,162.18h0a157.82,157.82,0,0,0-81.43,81.91L34.57,116.48h0a155.32,155.32,0,0,0-13.32,62.32A157.2,157.2,0,1,0,178.45,21.59Zm27.27,231.78A91.77,91.77,0,0,1,253,205.78l12.39,59.93Z" style="fill:#fff"/><rect x="0.01" width="335.65" height="336.01" style="fill:none"/><g style="clip-path:url(#b5caa5b3-b45a-41c3-81e7-577c6a1b2ceb)"><path d="M254.78,214.23l10.63,51.5c0-.37-5.27-25.85-10.63-51.5" style="fill:#fff"/></g><path d="M253,205.81l-9.14-43.61h0a157.8,157.8,0,0,0-81.42,81.91l43.3,9.25A92.16,92.16,0,0,1,253,205.81" style="fill:#fff"/><rect x="0.01" width="335.65" height="336.01" style="fill:none"/></g></g></svg>