<svg xmlns="http://www.w3.org/2000/svg" viewBox="0 0 43 43"><title>plus-15</title><g id="0f717aec-7c3b-4ccd-b1e2-dd1c4c580b10" data-name="Layer 2"><g id="9a5f3e3d-355f-44a8-9ac3-29db7e58748f" data-name="Layer 1"><path d="M43,21.5A21.5,21.5,0,1,0,3.61,33.41h0l.15.22a21.69,21.69,0,0,0,18,9.36,21.72,21.72,0,0,0,17.52-9.39l.12-.18h0A21.38,21.38,0,0,0,43,21.5Zm-1.43,0A19.93,19.93,0,0,1,39,31.31a9.78,9.78,0,0,0-9.39-6.95H25.35a.26.26,0,0,1-.26-.26v-.46a.29.29,0,0,1,.2-.25c4.61-1.73,7.49-8.93,6.89-14a10.7,10.7,0,0,0-3.5-6.66A20.1,20.1,0,0,1,41.57,21.5Zm-23.3.57c-3.43-1.27-6.09-7.12-6.09-11.32a9.29,9.29,0,0,1,.14-1.53A5,5,0,0,1,18,8.17a5,5,0,0,0,6.68-2.72A13,13,0,0,1,30.65,9c0,.2.07.4.1.6.53,4.4-2.12,11-6,12.45a1.7,1.7,0,0,0-1.13,1.59v.46a1.7,1.7,0,0,0,1.7,1.7h.16l-4,4-4-4h.16a1.7,1.7,0,0,0,1.7-1.7v-.46A1.69,1.69,0,0,0,18.27,22.07ZM14.33,2.76a10.71,10.71,0,0,0-3.58,8c0,4.75,3,11.18,7,12.66a.25.25,0,0,1,.15.24v.46a.26.26,0,0,1-.26.26H13.39a9.92,9.92,0,0,0-6.57,2.51A9.75,9.75,0,0,0,4,31.31,20,20,0,0,1,14.33,2.76C12.14,4.73,6.8,5.65,14.33,2.76ZM10,38V34.41s1.17,0,1.28,0,.15.2.15.43v4Q10.73,38.44,10,38Zm21.5.91V34.74c0-.44,0-.34.5-.34.2,0,.93-.13.93.11v3.13C33,38.28,32,38.57,31.53,38.87Z" style="fill:#f1ad05"/></g></g></svg>