<svg xmlns="http://www.w3.org/2000/svg" viewBox="0 0 39.01 39"><title>plus-10</title><g id="87f719c3-dd4a-4a84-a093-4070718f9641" data-name="Layer 2"><g id="2ce6eb4e-2ace-4bf2-a13f-73a1e48f78eb" data-name="Layer 1"><path d="M39,18.15A19.54,19.54,0,0,0,20.87,0l-.69,0V18.85H39ZM22.78,16.25V2.92A17,17,0,0,1,36.09,16.25Zm10.61,17,.46-.5A19.55,19.55,0,0,0,39,20.84l0-.69H20.34ZM18.83,0l-.69,0A19.5,19.5,0,0,0,4.79,32.3l.46.53,13.58-13.6ZM6.17,33.74l.52.46a19.44,19.44,0,0,0,25.15.36l.55-.45L19.1,20.8ZM19.48,36.4a16.85,16.85,0,0,1-9.42-2.88l9-9,9.33,9.34A16.89,16.89,0,0,1,19.48,36.4Z" style="fill:#f1ad05"/></g></g></svg>