<svg xmlns="http://www.w3.org/2000/svg" viewBox="0 0 46 42"><title>plus-12</title><g id="6031b7fd-2422-4ea4-b5fb-6473fa08096f" data-name="Layer 2"><g id="65df30ac-6622-4b65-828b-ac7388303134" data-name="Layer 1"><path d="M9.2,22.15a2.3,2.3,0,0,0-2.3,2.29V33.6a2.3,2.3,0,0,0,4.6,0V24.44A2.3,2.3,0,0,0,9.2,22.15Zm9.2,0a2.3,2.3,0,0,0-2.3,2.29v3.82a2.3,2.3,0,0,0,4.6,0V24.44A2.3,2.3,0,0,0,18.4,22.15Zm21-6.11L26.8,3.47a3.81,3.81,0,0,0-7.6,0L6.58,16H0V42H46V16ZM23,1.53a2.29,2.29,0,1,1-2.3,2.29A2.3,2.3,0,0,1,23,1.53ZM19.49,5.34a3.83,3.83,0,0,0,7,0L37.25,16H8.75ZM13,33.6a3.83,3.83,0,0,1-7.67,0V24.44a3.83,3.83,0,0,1,7.67,0Zm9.2-5.35a3.82,3.82,0,0,1-6.13,3v5.36a.77.77,0,0,1-1.53,0V24.44a3.83,3.83,0,0,1,7.67,0Zm8.43,0a.76.76,0,1,1,0,1.53H25.3v6.11h5.37a.76.76,0,1,1,0,1.53H24.53a.76.76,0,0,1-.77-.76V21.38a.76.76,0,0,1,.77-.76h6.13a.76.76,0,1,1,0,1.53H25.3v6.11Zm10,8.4h0a.76.76,0,0,1,0,.23V37l-.1.15-.06.09-.07,0-.18.12h0a.77.77,0,0,1-.28.05h0a.77.77,0,0,1-.27-.05l-.08,0-.16-.11-.06-.05a.76.76,0,0,1-.13-.19l0,0h0L34.5,25.35V36.65a.77.77,0,0,1-1.53,0V21.38h0a.76.76,0,0,1,0-.23v-.06l.1-.15.06-.09.07,0,.18-.12h0l.15,0,.14,0h0a.75.75,0,0,1,.24,0h0l.17.12.07,0,0,.07.12.18h0L39.1,32.69V21.38a.77.77,0,0,1,1.53,0Z" style="fill:#f1ad05"/></g></g></svg>