<svg xmlns="http://www.w3.org/2000/svg" viewBox="0 0 51.47 51.48"><title>plus-6</title><g id="2ce7e4a7-20eb-4fb0-ac10-d55ace243d9e" data-name="Layer 2"><g id="73ddc6ab-b43c-4bb3-859d-81c06c4a1db9" data-name="Layer 1"><path d="M.86,26.6a.86.86,0,0,0,.86-.86A24,24,0,0,1,40.59,6.86H36a.86.86,0,1,0,0,1.72h7.72V.86A.86.86,0,0,0,42,.86v5A25.72,25.72,0,0,0,0,25.74.86.86,0,0,0,.86,26.6ZM9.49,43.42a.86.86,0,1,0-.58,1.49.88.88,0,0,0,.63-.28.86.86,0,0,0-.05-1.21Zm-3-1.84a.86.86,0,0,0-.07,1.21.83.83,0,0,0,.64.29.86.86,0,1,0-.58-1.5ZM6.2,39.71a.86.86,0,1,0-.7,1.36.84.84,0,0,0,.5-.16A.86.86,0,0,0,6.2,39.71Zm4,5.48a.85.85,0,0,0,.18,1.2.83.83,0,0,0,.51.16.85.85,0,0,0,.7-.34A.87.87,0,0,0,11.4,45,.86.86,0,0,0,10.2,45.19Zm3.27,1.2a.86.86,0,0,0-.88,1.48A.82.82,0,0,0,13,48a.86.86,0,0,0,.45-1.6ZM50.58,27.56h0a.86.86,0,1,0-.86-.89A.86.86,0,0,0,50.61,27.56Zm-49.5,1.6A.86.86,0,1,0,.9,27.46.86.86,0,0,0,1,29.17Zm.48,2.52A.86.86,0,0,0,1.21,30a.85.85,0,0,0,.17,1.69ZM15.67,47.56a.85.85,0,0,0-1.14.41.86.86,0,0,0,.41,1.14.9.9,0,0,0,.36.08.86.86,0,0,0,.37-1.63ZM3.74,35.4a.86.86,0,0,0-1.57.69.87.87,0,0,0,.79.52.82.82,0,0,0,.34-.08A.86.86,0,0,0,3.74,35.4Zm-.88-2.32a.85.85,0,0,0-1.07-.56A.86.86,0,0,0,2,34.2a.93.93,0,0,0,.27,0A.86.86,0,0,0,2.86,33.08Zm2,4.54h0a.86.86,0,1,0-.74,1.28.84.84,0,0,0,.42-.11A.86.86,0,0,0,4.87,37.62ZM25.28,49.76a.86.86,0,0,0,0,1.72h0a.85.85,0,0,0,.86-.84A.86.86,0,0,0,25.28,49.76ZM47.33,38.14a.87.87,0,0,0-1.18.28.86.86,0,0,0,.27,1.18.89.89,0,0,0,.45.13.85.85,0,0,0,.73-.4A.86.86,0,0,0,47.33,38.14Zm-2.6,2.32a.86.86,0,0,0,.15,1.2.88.88,0,0,0,.53.18.86.86,0,1,0-.68-1.38Zm-1.62,1.88a.85.85,0,0,0,0,1.21.85.85,0,0,0,1.21,0,.86.86,0,0,0-1.24-1.18Zm5.39-6.49a.86.86,0,1,0-.76,1.54.83.83,0,0,0,.38.09.86.86,0,0,0,.38-1.63ZM41.3,44a.86.86,0,1,0,1.21.1A.86.86,0,0,0,41.3,44Zm9.2-15.63a.87.87,0,0,0-1,.73.85.85,0,0,0,.73,1h.12a.86.86,0,0,0,.12-1.71Zm-1.07,5a.86.86,0,0,0-.59,1.61.88.88,0,0,0,.29.05.86.86,0,0,0,.3-1.67ZM50.1,31a.86.86,0,0,0-.42,1.67l.21,0A.86.86,0,0,0,50.1,31ZM30.22,49.35a.86.86,0,0,0,.16,1.7h.15a.87.87,0,0,0,.69-1A.86.86,0,0,0,30.22,49.35Zm-2.46.33a.86.86,0,0,0,.08,1.72h.07a.84.84,0,0,0,.78-.92A.86.86,0,0,0,27.76,49.69ZM18,48.49a.86.86,0,1,0-.56,1.62,1.06,1.06,0,0,0,.28,0A.86.86,0,0,0,18,48.49Zm4.83,1.11a.86.86,0,1,0-.21,1.7h.1a.86.86,0,0,0,.1-1.71Zm-2.45-.43A.86.86,0,0,0,20,50.84l.2,0a.86.86,0,0,0,.19-1.69Zm12.28-.39a.85.85,0,0,0-.57,1.06.86.86,0,0,0,.82.61.89.89,0,0,0,.25,0,.86.86,0,1,0-.5-1.64Zm4.58-1.91a.86.86,0,0,0,.41,1.61.77.77,0,0,0,.4-.11.85.85,0,0,0-.82-1.5ZM35,47.93a.86.86,0,0,0,.33,1.65.92.92,0,0,0,.33-.06A.86.86,0,0,0,35,47.93Zm4.35-2.38a.86.86,0,0,0-.21,1.19.84.84,0,0,0,.7.37.86.86,0,1,0-.49-1.56ZM25.74,6.86A18.88,18.88,0,1,0,44.62,25.74,18.9,18.9,0,0,0,25.74,6.86Zm-.86,3.43a.86.86,0,0,1,1.72,0V12a.86.86,0,0,1-1.72,0ZM12,26.6H10.3a.86.86,0,0,1,0-1.72H12a.86.86,0,0,1,0,1.72ZM26.6,41.19a.86.86,0,1,1-1.72,0V39.48a.86.86,0,1,1,1.72,0Zm9.19-6.26a.86.86,0,0,1-1.21,0l-7.1-7.1a3.39,3.39,0,0,1-1.73.49,3.43,3.43,0,0,1-.86-6.74V17.16a.86.86,0,0,1,1.72,0v4.41a3.39,3.39,0,0,1,2.09,5l7.1,7.1A.86.86,0,0,1,35.79,34.93Zm5.4-10a.86.86,0,0,1,0,1.72H39.47a.86.86,0,0,1,0-1.72ZM25.74,23.17a1.72,1.72,0,1,0,1.72,1.72A1.72,1.72,0,0,0,25.74,23.17Z" style="fill:#f1ad05"/></g></g></svg>