<svg xmlns="http://www.w3.org/2000/svg" viewBox="0 0 51.49 49.63"><title>plus-5</title><g id="77671bfa-1f0c-43df-94b8-687f26fc0871" data-name="Layer 2"><g id="1ff3b6ca-db1c-4f3d-bab5-aae466155de1" data-name="Layer 1"><path d="M49.82,4.29H40.59L33.18.12,32.93,0h-.22a1,1,0,0,0-1,1V48.67a1,1,0,0,0,1,1H33l7.35-4.14h.86v3.43h8.58V45.48h0a1.67,1.67,0,0,0,1.67-1.67V6A1.67,1.67,0,0,0,49.82,4.29ZM35.18,20.52a.86.86,0,0,1,0-1.72,3.45,3.45,0,0,1,3.44,3.44v5.13a3.45,3.45,0,0,1-3.44,3.44.86.86,0,0,1,0-1.72,1.73,1.73,0,0,0,1.73-1.72V22.25A1.73,1.73,0,0,0,35.18,20.52Zm6.87,6.86a6.88,6.88,0,0,1-6.87,6.87.86.86,0,0,1,0-1.72,5.16,5.16,0,0,0,5.16-5.16V22.25a5.16,5.16,0,0,0-5.16-5.16.86.86,0,0,1,0-1.72,6.88,6.88,0,0,1,6.87,6.88Zm6,10.38H45.48a.86.86,0,0,1,0-1.72h2.57a.86.86,0,1,1,0,1.72Zm0-2.57H45.48a.86.86,0,0,1,0-1.72h2.57a.86.86,0,1,1,0,1.72Zm0-18.88H45.48a.86.86,0,0,1,0-1.72h2.57a.86.86,0,1,1,0,1.72Zm0-2.57H45.48a.86.86,0,1,1,0-1.72h2.57a.86.86,0,1,1,0,1.72ZM24,4.29H1.67A1.67,1.67,0,0,0,0,6V43.81a1.67,1.67,0,0,0,1.67,1.67h0v3.43H10.3V45.48H24v2.57h6.87V1.72H24Zm0,34.33H19.44l0-.11L22,32.61h2Zm-9.14-6,2.62,5.9,0,.11h-11l2.67-6Zm-3.27-1.72,2.67-6H20l2.67,6H11.62Zm5.15,1.72h3.37L18.45,36.4Zm7.26-3-2.11-4.75H24Zm0-6.47H16.77l2.67-6H24Zm0-7.72H18.32l-3.43,7.72H13.17L9.74,30.89H8l-4.2,9.44H24v1.72H4.59a2,2,0,0,1-2-2V9.74a2,2,0,0,1,2-2H24ZM27.46,3.79a1.29,1.29,0,1,1-1.29,1.29A1.29,1.29,0,0,1,27.46,3.79Zm0,5.15a1.29,1.29,0,1,1-1.29,1.29A1.29,1.29,0,0,1,27.46,8.94Zm0,5.15a1.29,1.29,0,1,1-1.29,1.29A1.29,1.29,0,0,1,27.46,14.09Zm0,18.88a1.29,1.29,0,1,1-1.29,1.29A1.29,1.29,0,0,1,27.46,33Zm0,5.15a1.29,1.29,0,1,1-1.29,1.29A1.29,1.29,0,0,1,27.46,38.12Zm0,5.15a1.29,1.29,0,1,1-1.29,1.29A1.29,1.29,0,0,1,27.46,43.27Z" style="fill:#f1ad05"/></g></g></svg>