<svg xmlns="http://www.w3.org/2000/svg" viewBox="0 0 43 33"><title>plus-19</title><g id="2c2a20bc-3411-4995-83ae-5853ae670ea1" data-name="Layer 2"><g id="9dbd5bd9-a57a-411e-a464-8eb33e639364" data-name="Layer 1"><path d="M39.39,16.41l.73-4.09a.72.72,0,0,0-.71-.84H3.58a.72.72,0,0,0-.71.84l.73,4.11A5.5,5.5,0,0,0,0,15.06V16.5a4.51,4.51,0,0,1,4.3,3.8l.34,1.93H10a.72.72,0,0,1,0,1.43H4.9l.26,1.43h6.31a.72.72,0,0,1,0,1.43H5.42L5.67,28h7.95a.72.72,0,0,1,0,1.43H5.93l.24,1.36A2.7,2.7,0,0,0,8.83,33H34.17a2.7,2.7,0,0,0,2.66-2.23l1.85-10.4A4.55,4.55,0,0,1,43,16.5V15.06A5.48,5.48,0,0,0,39.39,16.41Zm-4-10H7.59l-.72.72H36.13ZM5,10.76H38a.72.72,0,0,0,.51-1.23l-.93-.93H5.44l-.93.93A.72.72,0,0,0,5,10.76ZM32.63,3.67a2.71,2.71,0,0,0-1.93-.8H24.37a2.87,2.87,0,1,0-5.73,0H12.3a2.71,2.71,0,0,0-1.93.8L9,5H34Zm-12.56-.8a1.43,1.43,0,1,1,2.87,0Z" style="fill:#f1ad05"/></g></g></svg>