<svg xmlns="http://www.w3.org/2000/svg" viewBox="0 0 37 48"><title>plus-17</title><g id="e2cda69c-356c-405f-86c5-3a3ef2658729" data-name="Layer 2"><g id="eff739da-f219-4727-a600-4199592ce767" data-name="Layer 1"><path d="M28.14,35.15l0,0a.49.49,0,0,0-.16.22,2.07,2.07,0,0,1-3.92,0,.49.49,0,0,0-.16-.23l0,0a.51.51,0,0,0-.18-.08h0v6.2L26,38.87l2.36,2.4v-6.2h0A.53.53,0,0,0,28.14,35.15ZM25.52,0H0V48H37V11.67ZM19.68,18.4h5.51a.8.8,0,0,1,0,1.6H19.68a.8.8,0,0,1,0-1.6Zm-3.15.8a.82.82,0,0,1-.23.56.77.77,0,0,1-.56.24.82.82,0,0,1-.56-.23A.81.81,0,0,1,15,19.2a.78.78,0,0,1,.23-.56.81.81,0,0,1,1.12,0A.85.85,0,0,1,16.53,19.2ZM7.87,12H15a.8.8,0,0,1,0,1.6H7.87a.8.8,0,0,1,0-1.6Zm0,6.4h3.94a.8.8,0,0,1,0,1.6H7.87a.8.8,0,0,1,0-1.6ZM7.31,25a.8.8,0,0,1,1.12,1.14.79.79,0,0,1-1.12,0,.85.85,0,0,1-.23-.57A.79.79,0,0,1,7.31,25Zm2,13.18a.79.79,0,0,1-1.34.57L5.74,36.9c-.78-.66.34-1.79,1.11-1.13l1,.83c.21-1.81.79-3.55,2.52-4.47.9-.47,1.7.91.79,1.38C9.43,34.42,9.35,36.48,9.29,38.21Zm7-1.21c-.27-.49-1.46.45-1.78.57a2.67,2.67,0,0,1-1.33.18,2.71,2.71,0,0,1-2.1-1.55c-.45-.92.91-1.73,1.36-.81.75,1.55,2,.22,3.1-.08a1.84,1.84,0,0,1,2.12.88C18.2,37.1,16.84,37.91,16.34,37Zm1-10.61H11.81a.8.8,0,0,1,0-1.6h5.51a.8.8,0,0,1,0,1.6Zm14.36,5.19a.5.5,0,0,0-.3.29.52.52,0,0,0,0,.42,2.12,2.12,0,0,1-.11,2,2.09,2.09,0,0,1-1.37.94v9.88l-3.94-4-3.94,4V35.25a2.1,2.1,0,0,1-1.37-.94,2.12,2.12,0,0,1-.11-2,.52.52,0,0,0,0-.42.5.5,0,0,0-.3-.29,2.12,2.12,0,0,1,0-4,.5.5,0,0,0,.3-.29.52.52,0,0,0,0-.42,2.12,2.12,0,0,1,.11-2,2.09,2.09,0,0,1,2.66-.79A.49.49,0,0,0,24,23.8a2.07,2.07,0,0,1,3.92,0,.49.49,0,0,0,.69.29,2.09,2.09,0,0,1,2.65.79,2.12,2.12,0,0,1,.11,2,.52.52,0,0,0,0,.42.5.5,0,0,0,.3.29,2.12,2.12,0,0,1,0,4ZM28.34,19.2a.85.85,0,0,1,.23-.57.82.82,0,0,1,1.12,0,.82.82,0,0,1,0,1.14.79.79,0,0,1-1.12,0A.85.85,0,0,1,28.34,19.2ZM23.62,12V.8l11,11.2Zm7.54,17.12a2.09,2.09,0,0,1-1.22-1.18,2.15,2.15,0,0,1,0-1.72.49.49,0,0,0,0-.48.49.49,0,0,0-.65-.2,2,2,0,0,1-.89.2,2.08,2.08,0,0,1-2-1.4.5.5,0,0,0-.95,0,2.08,2.08,0,0,1-2,1.4,2,2,0,0,1-.89-.2.49.49,0,0,0-.65.2.48.48,0,0,0,0,.48,2.15,2.15,0,0,1,0,1.72,2.09,2.09,0,0,1-1.22,1.18.51.51,0,0,0,0,1A2.09,2.09,0,0,1,22,31.26,2.15,2.15,0,0,1,22,33a.5.5,0,0,0,.55.71l.18-.06a1.89,1.89,0,0,1,.83-.18,2.08,2.08,0,0,1,2,1.41.5.5,0,0,0,.95,0,2.08,2.08,0,0,1,2-1.41,2,2,0,0,1,.45.05l.13,0a2,2,0,0,1,.27.09l.17.05A.5.5,0,0,0,30,33a2.15,2.15,0,0,1,0-1.72,2.09,2.09,0,0,1,1.22-1.18.51.51,0,0,0,0-1Z" style="fill:#f1ad05"/></g></g></svg>