<svg xmlns="http://www.w3.org/2000/svg" viewBox="0 0 43.77 51.49"><title>plus-7</title><g id="869ea343-34ae-4734-9099-004cbba80ce7" data-name="Layer 2"><g id="0b7fdf1a-bd2c-4b82-bce4-183c44db179e" data-name="Layer 1"><path d="M36.9,30.89h-30a.86.86,0,1,0,0,1.72h30a.86.86,0,1,0,0-1.72ZM25.74,26.6H36.9a.86.86,0,1,0,0-1.72H25.74a.86.86,0,1,0,0,1.72Zm0-6H36.9a.86.86,0,0,0,0-1.72H25.74a.86.86,0,0,0,0,1.72Zm0-6H36.9a.86.86,0,0,0,0-1.72H25.74a.86.86,0,0,0,0,1.72ZM36.9,41.19h-30a.86.86,0,1,0,0,1.72h30a.86.86,0,1,0,0-1.72Zm-30-3.43h12a.86.86,0,0,0,0-1.72h-12a.86.86,0,0,0,0,1.72ZM36.9,36H25.74a.86.86,0,0,0,0,1.72H36.9a.86.86,0,0,0,0-1.72Zm-14,1.47a.9.9,0,0,0,.25-.61.87.87,0,0,0-.25-.6.86.86,0,1,0-.61,1.46A.9.9,0,0,0,22.92,37.51Zm20-34.08H21.45V.86A.86.86,0,0,0,20.6,0H6.87A.86.86,0,0,0,6,.86V3.43H.86A.86.86,0,0,0,0,4.29V50.63a.86.86,0,0,0,.86.86h42a.86.86,0,0,0,.86-.86V4.29A.86.86,0,0,0,42.91,3.43ZM42,49.77H1.72V5.15H6V24.89a.86.86,0,0,0,1.37.69l6.35-4.76,6.35,4.76a.84.84,0,0,0,.23.12l.09,0,.16,0h.08a.84.84,0,0,0,.82-.85V5.15H42Z" style="fill:#f1ad05"/></g></g></svg>