<svg xmlns="http://www.w3.org/2000/svg" viewBox="0 0 47.2 49.77"><title>plus-1</title><g id="8fbf5a07-2c15-4e31-9c9e-b2c9c1b21647" data-name="Layer 2"><g id="77f1666f-0186-4697-8cad-38768466f51c" data-name="Layer 1"><path d="M6.87,45.48a4.29,4.29,0,1,0-4.29-4.29A4.3,4.3,0,0,0,6.87,45.48ZM47.2,30a3.64,3.64,0,0,0-2.33-3.63A4.29,4.29,0,0,0,42,18.88H29.72L30.35,16a29.78,29.78,0,0,0,.1-9.61c-.44-3-3.1-6.35-6-6.35h-.21C22.89,0,20.6.78,20.6,6c0,12.72-5.74,12.87-6,12.87h-.86V17.16H0V49.77H13.73V48.06h24a4.29,4.29,0,0,0,3.37-6.94,4.29,4.29,0,0,0,2.57-6.87A4.3,4.3,0,0,0,47.2,30ZM12,48.06H1.72V18.88H12Z" style="fill:#f1ad05"/></g></g></svg>