<svg xmlns="http://www.w3.org/2000/svg" viewBox="0 0 39 42.93"><title>plus-16</title><g id="8fd0f0f0-7efb-418e-8d65-3365ecf0a0e0" data-name="Layer 2"><g id="47f0640f-ee9f-4e24-aaa0-4338b6e86d86" data-name="Layer 1"><path d="M19.09,0h0a.71.71,0,0,1,.42.65v.72a.72.72,0,0,1-1.44,0V.65A.71.71,0,0,1,18.47,0h0L.39,9.33h0l18.41,9.13L37.9,9Zm.41,14.26a.72.72,0,0,1-1.44,0V12.83a.72.72,0,0,1,1.44,0Zm0-4.3a.72.72,0,0,1-1.44,0V8.53a.72.72,0,0,1,1.44,0Zm0-4.3a.72.72,0,0,1-1.44,0V4.23a.72.72,0,0,1,1.44,0Zm0,14.06V42.93a.73.73,0,0,0,.29-.07h0L38.6,33.54a.72.72,0,0,0,.4-.64V10.05Zm6.07,7.69a.72.72,0,0,1-.66.42.71.71,0,0,1-.3-.07l-1.31-.6a.71.71,0,0,1-.35-1,.72.72,0,0,1,1-.35l1.31.6A.71.71,0,0,1,25.57,27.41Zm3.93,1.8a.73.73,0,0,1-1,.35L27.24,29a.72.72,0,0,1-.35-1,.73.73,0,0,1,1-.35l1.31.6A.71.71,0,0,1,29.51,29.21ZM33.44,31a.72.72,0,0,1-1,.35l-1.31-.6a.71.71,0,0,1-.35-1,.72.72,0,0,1,1-.35l1.31.6A.71.71,0,0,1,33.44,31ZM0,32.9a.72.72,0,0,0,.4.64L18.06,42.3V19.73L0,10.77ZM15.44,25l1.31-.6a.72.72,0,0,1,1,.35.72.72,0,0,1-.35,1l-1.31.6a.73.73,0,0,1-.3.07.72.72,0,0,1-.66-.42A.71.71,0,0,1,15.44,25Zm-3.93,1.8,1.31-.6a.72.72,0,0,1,1,.35.71.71,0,0,1-.35,1l-1.31.6a.72.72,0,1,1-.61-1.3Zm-3.93,1.8L8.88,28a.72.72,0,0,1,1,.35.72.72,0,0,1-.35,1l-1.31.6a.73.73,0,0,1-.3.07.72.72,0,0,1-.66-.42A.71.71,0,0,1,7.57,28.64Zm-3.93,1.8,1.31-.6a.72.72,0,0,1,1,.35.71.71,0,0,1-.35,1l-1.31.6a.72.72,0,1,1-.61-1.3Z" style="fill:#f1ad05"/></g></g></svg>