<svg xmlns="http://www.w3.org/2000/svg" viewBox="0 0 51.49 47.2"><title>plus-3</title><g id="63481765-07c1-48dd-906d-38532c84bd26" data-name="Layer 2"><g id="d5114ac4-6b85-4df9-a869-94af176b967e" data-name="Layer 1"><path d="M50.63,45.48V12H40.33V45.48H37.76V18.88H27.46v26.6H24.89V25.75H14.59V45.48H12v-12H1.72v12H.86a.86.86,0,1,0,0,1.72H50.63a.86.86,0,1,0,0-1.72ZM6.89,21.74a.86.86,0,0,0,.43-.11l31.12-18L36.49,7.94a.86.86,0,1,0,1.56.71l3.06-6.72,0-.07,0-.14,0-.07V1.53l0-.14,0-.1,0-.09,0-.07,0-.05L41,1,40.9.94,40.79.86,40.71.81l0,0-.07,0-.14,0-.06,0L33.07,0a.86.86,0,0,0-.17,1.71l4.68.45-31.12,18a.86.86,0,0,0,.43,1.6Z" style="fill:#f1ad05"/></g></g></svg>