<svg xmlns="http://www.w3.org/2000/svg" viewBox="0 0 49.77 51.49"><title>plus-8</title><g id="b057cf65-db7c-4bdb-8a97-5324627914bc" data-name="Layer 2"><g id="b924d006-d55f-460e-909a-02d8ce683c9d" data-name="Layer 1"><path d="M41.2,28.32a16.28,16.28,0,0,0-1.71.09,17.25,17.25,0,0,0-5-6.19L28.29,18a7.62,7.62,0,0,0-4.5-1.72H17.13a7.4,7.4,0,0,0-4.54,1.56L6.52,22.29A16.84,16.84,0,0,0,1.76,43c1.72,3.39,4,5.34,6.43,5.51l.7,0H25.31a6.83,6.83,0,0,0,8.93,2.06,22.73,22.73,0,0,0,7,.87c7.95,0,8.57-1.91,8.57-2.49V45.56h0V42.13h0V38.7h0V35.27h0V31.83C49.77,30.09,45.45,28.32,41.2,28.32ZM18.06,24C13.54,24,7.77,30.28,7.77,35.18a.86.86,0,1,1-1.71,0c0-5.9,6.51-12.87,12-12.87a.86.86,0,0,1,0,1.72ZM41.2,30a12.07,12.07,0,0,1,6.63,1.71h0l-.34.13h0L47,32h0l-.57.13-.11,0-.68.12h-.11l-.79.1h-.05l-.91.08h-.18l-1,.05h-.19l-1.14,0-1.14,0h-.19l-1-.05H38.7l-.91-.08h-.05l-.79-.1h-.11l-.68-.12-.11,0L35.48,32h0L35,31.9h0l-.34-.12h0A12.07,12.07,0,0,1,41.2,30ZM30.92,49.77a5.14,5.14,0,0,1-4.41-2.52,5.26,5.26,0,0,1-.38-.78l0-.06a5.09,5.09,0,0,1-.23-.8v-.06a5.08,5.08,0,0,1-.08-.77v-.11a5.27,5.27,0,0,1,.05-.78l0-.17a4.9,4.9,0,0,1,.16-.66L26,43a5,5,0,0,1,.26-.63l0-.06a5.29,5.29,0,0,1,2.08-2.18h0a5,5,0,0,1,.63-.3l.16-.06a4.81,4.81,0,0,1,.6-.18l.07,0a5.33,5.33,0,0,1,.74-.09h.16a4.93,4.93,0,0,1,.74,0h.07a5,5,0,0,1,.75.15h0a5.23,5.23,0,0,1,.77.29,5.15,5.15,0,0,1-2.19,9.8Zm17.14-1c-.56.37-3,1-6.86,1a27.87,27.87,0,0,1-5-.41,6.8,6.8,0,0,0,1-1.55l.24,0,.39,0,.7.06.41,0,.77,0L40,48l1.17,0,1.34,0,.4,0,.79,0,.42,0,.64-.06.39,0,.54-.07.35-.06.46-.09.29-.06.41-.1.24-.07.37-.12.17-.06h0Zm0-3.43a1.85,1.85,0,0,1-.28.14h0l-.43.15,0,0-.56.15-.08,0-.7.14-.11,0-.84.12h-.13l-1,.1h-.13l-1.14.07h-.09l-1.33,0c-.56,0-1.1,0-1.63,0l-.37,0c-.52,0-1-.07-1.5-.12h0a6.81,6.81,0,0,0,.1-1.18v-.52c.7.07,1.45.11,2.21.14.35,0,.74,0,1.23,0l1.34,0,.4,0,.79,0,.42,0,.64-.06.39,0,.54-.07.35-.06.46-.09.29-.06.41-.1.24-.06.37-.12.17-.06h0Zm0-3.43a1.74,1.74,0,0,1-.28.14h0l-.43.15h0l-.56.15-.08,0-.7.14-.11,0-.84.12-.13,0-1,.1h-.13l-1.14.07h-.09l-1.33,0-1.09,0h-.34l-.72,0-.38,0L38,42.75l-.37,0-.16,0a6.84,6.84,0,0,0-.82-1.79,30.58,30.58,0,0,0,4.53.29l1.34,0,.4,0,.79,0,.42,0,.64-.06.39,0,.54-.07.35-.06.46-.09.29-.06.41-.1.24-.06.37-.12.17-.06h0Zm0-3.43a1.8,1.8,0,0,1-.28.14h0l-.43.15h0l-.56.15-.08,0-.7.14-.11,0-.84.12-.13,0-1,.1h-.13l-1.14.07h-.09l-1.33,0c-3.9,0-6.3-.61-6.86-1V37.33l3.37.25a33.76,33.76,0,0,0,3.49.17l1.34,0,.4,0,.79,0,.42,0,.64-.06.39,0,.54-.07.35-.06.46-.09.29-.06.41-.1.24-.07.37-.12.17-.06h0Zm0-3.43a1.8,1.8,0,0,1-.28.14h0l-.43.15h0l-.56.15-.08,0-.7.14-.11,0-.84.12-.13,0-1,.1h-.13L42.62,36h-.09L41.2,36c-3.9,0-6.3-.61-6.86-1V33.89l2.9.22a32.82,32.82,0,0,0,4,.21l1.34,0,.4,0,.79,0,.42,0,.63-.06.4,0,.53-.07.35-.06.46-.08.3-.06.4-.1.25-.07.36-.12.19-.07h0ZM26.63,14V12a.86.86,0,0,0-.86-.86H15.49a.86.86,0,0,0,0,1.72h9.43v.86H15.49a.86.86,0,0,0,0,1.72H25.71a4.24,4.24,0,0,0,5.76-.25A.86.86,0,1,0,30.25,14,2.63,2.63,0,0,1,26.63,14Zm-12-5.39A2.49,2.49,0,0,0,17,10.29h6.37A2.49,2.49,0,0,0,25.73,8.6a11.74,11.74,0,0,1,2.19-3.81,2.57,2.57,0,0,0,.87-2.44A2.44,2.44,0,0,0,27.13.48a6.74,6.74,0,0,0-6.6.83.83.83,0,0,1-1,0,6.74,6.74,0,0,0-6.6-.83,2.44,2.44,0,0,0-1.65,1.87,2.57,2.57,0,0,0,.87,2.44A13.52,13.52,0,0,1,14.68,8.6Z" style="fill:#f1ad05"/></g></g></svg>