<svg xmlns="http://www.w3.org/2000/svg" viewBox="0 0 51.49 51.49"><title>plus-4</title><g id="3d504c3d-b3b7-413c-86f2-840dd407d63a" data-name="Layer 2"><g id="06851efb-efa2-4117-82d2-3996ec231863" data-name="Layer 1"><path d="M51.49,6.87V0H0V6.87H1.72V41.19H.86a.86.86,0,0,0,0,1.72h24v1.72l0,.11a3.43,3.43,0,1,0,1.67,0l0-.11V42.91h24a.86.86,0,0,0,0-1.72h-.86V6.87Zm-43.77,12A.86.86,0,0,1,8.58,18H16.3a.86.86,0,0,1,0,1.72H8.58A.86.86,0,0,1,7.72,18.88Zm.86-3.43H16.3a.86.86,0,0,1,0,1.72H8.58a.86.86,0,0,1,0-1.72Zm-.86-1.72a.86.86,0,0,1,.86-.86h4.29a.86.86,0,0,1,0,1.72H8.58A.86.86,0,0,1,7.72,13.73ZM27.46,48.06a1.72,1.72,0,1,1-1.72-1.72A1.72,1.72,0,0,1,27.46,48.06ZM42,25.75a.86.86,0,0,1-1.72,0V21.81L29.44,32.7a.86.86,0,0,1-1.21,0l-7.12-7.12L10.9,35.79a.86.86,0,1,1-1.21-1.21L20.5,23.77a.86.86,0,0,1,1.21,0l7.12,7.12L39.12,20.6H35.18a.86.86,0,0,1,0-1.72h6a.86.86,0,0,1,.86.86ZM1.72,5.15V1.72H49.77V5.15Z" style="fill:#f1ad05"/></g></g></svg>