<svg xmlns="http://www.w3.org/2000/svg" viewBox="0 0 51.51 34.33"><title>plus-2</title><g id="02344cdb-c3b9-4701-900b-5d48bdd85d04" data-name="Layer 2"><g id="7aebfff8-1f47-4020-83c6-530270662f2a" data-name="Layer 1"><path d="M51.48.71h0a.83.83,0,0,0-.11-.29h0a.83.83,0,0,0-.2-.22l-.05,0a.82.82,0,0,0-.21-.1l-.14,0-.11,0h-.2L.68,10.32a.86.86,0,0,0-.23,1.6l14.26,7.53,2.5,13.89s0,0,0,0a.85.85,0,0,0,0,.2.82.82,0,0,0,0,.1.84.84,0,0,0,.09.23l0,0h0l0,0a.87.87,0,0,0,.13.13l0,0,0,0,.16.09.07,0a.88.88,0,0,0,.24,0h.06a.85.85,0,0,0,.61-.27l9.5-6.34,9.94,6.47a.86.86,0,0,0,1.27-.42L51.38,1.31a.85.85,0,0,0,.12-.45A.81.81,0,0,0,51.48.71ZM41.55,6.48,21,21.62l-.09.08,0,0-.05.06,0,.06a.86.86,0,0,0-.08.16v0h0l-2.36,7.67L16.44,19.35ZM19.64,31.38,22,23.65,25.61,26l1,.68-3.54,2.36Z" style="fill:#f1ad05"/></g></g></svg>