<svg xmlns="http://www.w3.org/2000/svg" viewBox="0 0 49.5 59.65"><title>plus-11</title><g id="420754b4-c97d-4d67-9ad8-80fa43cf8719" data-name="Layer 2"><g id="b0ce0e96-1db5-456e-ab06-81ca63361bcc" data-name="Layer 1"><path d="M46.45,37.15A8.37,8.37,0,0,0,46,34.57l3.46-3.46-4.58-4.58a4.47,4.47,0,0,0-3.5-7.84,4.44,4.44,0,0,0-4.46-5,4.65,4.65,0,0,0-.54,0,4.43,4.43,0,0,0,0-.54A4.51,4.51,0,0,0,32,8.65a4.41,4.41,0,0,0-.54,0,4.49,4.49,0,0,0-7.84-3.5L18.38,0,0,18.39l9.24,9.24a4.49,4.49,0,0,0,1.24,6.28l.22.24L21.45,44.86v1.8h-2v13h26v-13h-2v-3A8.42,8.42,0,0,0,46.45,37.15Zm-36-7a2.48,2.48,0,0,1,.68-1.7l.15-.14A2.48,2.48,0,0,1,13,27.65H23a2.5,2.5,0,0,1,0,5H13A2.5,2.5,0,0,1,10.45,30.15Zm7.23-12.48a10,10,0,1,1,7.08,17.06h0a10.11,10.11,0,0,1-1.51-.12,4.5,4.5,0,0,0,3.84-2.71,4.45,4.45,0,0,1-.29.57,8,8,0,1,0-10-6.83h-2A10,10,0,0,1,17.68,17.68ZM43.13,31.82a1,1,0,1,1,0-1.41A1,1,0,0,1,43.13,31.82ZM40.3,33.23l.71.71L33.94,41l-.71-.71a3.07,3.07,0,0,0-4.24,0l-.71.71-3.54-3.54a1,1,0,0,1,1.41-1.41l2.19,2.19a5.1,5.1,0,0,1,5.52,0l4.38-4.38a5,5,0,0,1,0-5.51l-2.19-2.19a1,1,0,1,1,1.41-1.41L41,28.28,40.3,29A3,3,0,0,0,40.3,33.23Zm-9.9,9.9a1,1,0,1,1,1.41,0A1,1,0,0,1,30.41,43.13Zm-3-13a4.51,4.51,0,0,1-.08.81A4.49,4.49,0,0,0,27.45,30.15Zm-.12,1a4.45,4.45,0,0,1-.22.7A4.47,4.47,0,0,0,27.33,31.16Zm2.12,18.49a3.5,3.5,0,1,1-3.5,3.5A3.5,3.5,0,0,1,29.45,49.65Zm15-26.5a2.5,2.5,0,0,1-.94,1.95L40,21.59a2.5,2.5,0,0,1,4.45,1.56Zm-5-5a2.5,2.5,0,0,1-.94,1.95L35,16.59a2.5,2.5,0,0,1,4.45,1.56Zm-5-5a2.5,2.5,0,0,1-.94,1.95L30,11.59a2.5,2.5,0,0,1,4.45,1.56ZM27,5.65a2.5,2.5,0,0,1,1.56,4.45L25,6.59A2.5,2.5,0,0,1,27,5.65Zm-9.27.71a1,1,0,1,1,0,1.41A1,1,0,0,1,17.68,6.36ZM7.78,19.09a1,1,0,1,1,0-1.41A1,1,0,0,1,7.78,19.09Zm1.41-2.83-.71-.71,7.07-7.07.71.71a3.07,3.07,0,0,0,4.24,0l.71-.71L24.75,12a1,1,0,0,1-1.41,1.41l-2.19-2.19a5.11,5.11,0,0,1-5.52,0l-4.38,4.39a5,5,0,0,1,0,5.51l2.19,2.19A1,1,0,1,1,12,24.75L8.49,21.21l.71-.71A3,3,0,0,0,9.19,16.26ZM23.1,43.64l-.18-.14L14,34.65h2.23l12,12H23.45V43.94Zm20.35,14h-6V54.23A7.55,7.55,0,0,0,35,48.65h8.46ZM34,46.65,44.38,36.23a6.36,6.36,0,0,1,.07.93,6.45,6.45,0,0,1-2.6,5.19l-.4.3v4Z" style="fill:#f1ad05"/></g></g></svg>