<svg xmlns="http://www.w3.org/2000/svg" viewBox="0 0 39 47"><title>plus-13</title><g id="c0ea4043-a65e-4f9f-8050-75e9bb0d384e" data-name="Layer 2"><g id="3467ec05-ec94-4e6a-a085-a92a03923694" data-name="Layer 1"><path d="M15.92,5.48h7.16a.79.79,0,0,0,.8-.78V.78a.79.79,0,0,0-.8-.78H15.92a.79.79,0,0,0-.8.78V4.7A.79.79,0,0,0,15.92,5.48ZM26.27,1.57a.78.78,0,1,0,0,1.57H37.41v42.3H1.59V3.13H12.73a.78.78,0,1,0,0-1.57H0V47H39V1.57ZM2.39,3.92V44.65H36.61V3.92H27.86V6.27H11.14V3.92ZM18.31,37.6H8A.78.78,0,1,1,8,36H18.31a.78.78,0,1,1,0,1.57ZM31,32.9H8a.78.78,0,1,1,0-1.57H31a.78.78,0,1,1,0,1.57Zm0-5.48H8a.78.78,0,1,1,0-1.57H31a.78.78,0,1,1,0,1.57ZM7.16,21.93a.79.79,0,0,1,.8-.78H19.1a.78.78,0,1,1,0,1.57H8A.79.79,0,0,1,7.16,21.93Zm14.33,0a.76.76,0,0,1,.23-.56.83.83,0,0,1,1.13,0,.77.77,0,0,1,.23.56.8.8,0,0,1-.23.56.83.83,0,0,1-.57.23.79.79,0,0,1-.57-.23A.81.81,0,0,1,21.49,21.93Zm9.55.78H25.47a.78.78,0,1,1,0-1.57H31a.78.78,0,1,1,0,1.57Zm0-6.27A.78.78,0,1,1,31,18H8a.78.78,0,1,1,0-1.57Zm-12.73-4.7a.78.78,0,1,1,0,1.57H8a.78.78,0,1,1,0-1.57Z" style="fill:#f1ad05"/></g></g></svg>