<svg xmlns="http://www.w3.org/2000/svg" viewBox="0 0 42 40"><title>plus-14</title><g id="56da57f0-e349-4c4c-82ed-7316213f0224" data-name="Layer 2"><g id="1823ac67-9446-4cfa-b52c-1e0f898c23ac" data-name="Layer 1"><path d="M41.62,24.13a2.56,2.56,0,0,0-2.15-1.29A8.09,8.09,0,0,0,36,24l-6,3.64a12.84,12.84,0,0,1-4.51.64A2.27,2.27,0,0,0,25.06,26a5.79,5.79,0,0,0-2.18-1.9,6.1,6.1,0,0,0,2.32-4.79,6.3,6.3,0,0,0-12.6,0,6.1,6.1,0,0,0,.72,2.87l0,0C10.8,20.3,6.61,20,4.9,20V17.91H0V40H4.9V37.93H14a29.08,29.08,0,0,0,4.28-.32l9.07-1.36a4.78,4.78,0,0,0,1-.11A4.27,4.27,0,0,0,30.63,35l10.63-8.15A2,2,0,0,0,41.62,24.13ZM18.9,15.86a3.45,3.45,0,1,1-3.5,3.45A3.48,3.48,0,0,1,18.9,15.86Zm21.48,9.91L29.74,33.94l-.05,0a2.94,2.94,0,0,1-1.63.81,3.52,3.52,0,0,1-.75.08l-9.23,1.37a27.48,27.48,0,0,1-4.07.3H4.9V21.38c2.55,0,5.77.56,7.55,1.88a7.92,7.92,0,0,0,3.25,1.39h0l.13,0h0l.7.09h0c.24,0,.48,0,.72,0H20a5,5,0,0,1,1.14.13h0a4.5,4.5,0,0,1,2.68,1.82c.29.42.41.78.32.95s-.81.53-2,.56H14.7c-2.19,0-3.5,1-3.5,2.76a.7.7,0,0,0,1.4,0c0-.34,0-1.38,2.1-1.38h8l1.95,0c3.08,0,4.94-.25,6-.83l6-3.63a7.24,7.24,0,0,1,2.74-1c.34,0,.57.1,1,.71A.63.63,0,0,1,40.38,25.78Zm-11-13.36a6.26,6.26,0,0,0,6.3-6.21,6.3,6.3,0,0,0-12.6,0A6.26,6.26,0,0,0,29.4,12.41Zm0-9.66a3.45,3.45,0,1,1-3.5,3.45A3.48,3.48,0,0,1,29.4,2.76Z" style="fill:#f1ad05"/></g></g></svg>