<svg xmlns="http://www.w3.org/2000/svg" viewBox="0 0 27.8 57"><title>wedding-rule-2</title><g id="05e19310-8190-4092-9bef-caadc4adb56c" data-name="Layer 2"><g id="4715e303-458c-4626-89e0-e1f4c71d2c22" data-name="Layer 1"><path d="M11.9,26.5a1,1,0,1,0,1,1A1,1,0,0,0,11.9,26.5ZM4.24,23.81a1,1,0,1,0,1,1A1,1,0,0,0,4.24,23.81ZM14.9,32.5a1,1,0,1,0-1,1A1,1,0,0,0,14.9,32.5Zm6.81-4.44a1,1,0,1,0-1-1A1,1,0,0,0,21.71,28.06Zm-15,0a1,1,0,1,0,1,1A1,1,0,0,0,6.74,28.06Zm9.16-.56a1,1,0,1,0-1-1A1,1,0,0,0,15.9,27.5ZM14.9,50V36.95A13.87,13.87,0,0,0,27.64,21L24.91,3a.93.93,0,0,0-.17-.4C23.42,0,14.32,0,13.9,0S4.46,0,3.08,2.55A1,1,0,0,0,2.89,3L.34,19.82a1.5,1.5,0,0,0-.08.47s0,0,0,0L.16,21A13.87,13.87,0,0,0,12.9,36.95V50c-3.2.07-11,.54-11,3.49,0,3.33,10,3.5,12,3.5s12-.17,12-3.5C25.9,50.56,18.1,50.08,14.9,50Zm-1-48a25.13,25.13,0,0,1,8.51,1.17h0l-.46.13h-.06l-.58.13h0l-.72.12-.14,0-.85.11-.15,0-1,.1h-.06l-1.15.08h-.24L15.66,4H15.4L13.9,4,12.4,4h-.27l-1.28,0h-.24L9.49,3.84H9.44l-1-.1-.19,0L7.41,3.6l-.15,0-.68-.12h0L6,3.33l-.1,0-.44-.13h0A25.13,25.13,0,0,1,13.9,2ZM4.61,5h0l.57.19h0l.69.17H6l.8.15.12,0,.91.13.16,0,1,.11.19,0,1.22.08h.2L12.05,6h.15L13.9,6l1.69,0h.15l1.42-.05h.2l1.22-.08.19,0,1-.11.16,0,.91-.13.12,0,.8-.15h.05l.69-.17h0L23.16,5h0l2,13C22,16.74,16.49,16.4,13.87,16.4S5.8,16.73,2.64,18Zm9.26,13.4c6.12,0,10.33,1.11,11.42,1.85-1,.53-4.44,1.35-11.42,1.35S3.43,20.79,2.45,20.25C3.54,19.51,7.75,18.4,13.87,18.4Zm-9,12.46A11.88,11.88,0,0,1,2,22.21c2.57,1.1,7.48,1.38,11.82,1.38s9.33-.29,11.88-1.41A11.89,11.89,0,0,1,4.88,30.86ZM13.9,55c-5.59,0-9-.91-9.84-1.5.84-.56,3.85-1.39,8.84-1.49v1.13a1,1,0,1,0,2,0V52c5,.1,8,.93,8.84,1.49C22.85,54.09,19.49,55,13.9,55Z" style="fill:#616379"/></g></g></svg>