<svg xmlns="http://www.w3.org/2000/svg" width="52" height="52" viewBox="0 0 52 52">
  <metadata><?xpacket begin="﻿" id="W5M0MpCehiHzreSzNTczkc9d"?>
<x:xmpmeta xmlns:x="adobe:ns:meta/" x:xmptk="Adobe XMP Core 5.6-c138 79.159824, 2016/09/14-01:09:01        ">
   <rdf:RDF xmlns:rdf="http://www.w3.org/1999/02/22-rdf-syntax-ns#">
      <rdf:Description rdf:about=""/>
   </rdf:RDF>
</x:xmpmeta>
                                                                                                    
                                                                                                    
                                                                                                    
                                                                                                    
                                                                                                    
                                                                                                    
                                                                                                    
                                                                                                    
                                                                                                    
                                                                                                    
                                                                                                    
                                                                                                    
                                                                                                    
                                                                                                    
                                                                                                    
                                                                                                    
                                                                                                    
                                                                                                    
                                                                                                    
                                                                                                    
                           
<?xpacket end="w"?></metadata>
<defs>
    <style>
      .cls-1 {
        fill: #616379;
        fill-rule: evenodd;
      }
    </style>
  </defs>
  <path id="Success" class="cls-1" d="M502,1214a26,26,0,1,1,26-26A26.027,26.027,0,0,1,502,1214Zm0-50a24,24,0,1,0,24,24A24.03,24.03,0,0,0,502,1164Zm-3,33a0.981,0.981,0,0,1-.624-0.22l-10-8a1,1,0,1,1,1.25-1.56l9.258,7.41,15.369-17.3a1,1,0,0,1,1.5,1.33l-16,18A0.977,0.977,0,0,1,499,1197Z" transform="translate(-476 -1162)"/>
</svg>
