<svg xmlns="http://www.w3.org/2000/svg" viewBox="0 0 58 53"><title>advantage-12</title><path d="M57 48h-2v-5.64l-2.36 1.74a7.24 7.24 0 0 1-11.14-1.7 7.23 7.23 0 0 1-12.5 0 7.23 7.23 0 0 1-12.5 0 7.24 7.24 0 0 1-11.14 1.7L3 42.36V48H1a1 1 0 0 0 0 2h56a1 1 0 0 0 0-2zm-4 3H5a1 1 0 1 0 0 2h48a1 1 0 1 0 0-2zM16.29 4.71a1 1 0 0 0 1.41 0l.79-.79.79.79a1 1 0 1 0 1.41-1.41l-.79-.79.79-.79a1 1 0 1 0-1.4-1.43l-.79.79-.79-.79A1 1 0 1 0 16.3 1.7l.79.79-.79.79a1 1 0 0 0-.01 1.43zm7 0a1 1 0 0 0 1.41 0l.79-.79.79.79a1 1 0 0 0 1.41-1.41l-.79-.79.79-.79a1 1 0 0 0-1.4-1.43l-.79.79-.79-.79A1 1 0 1 0 23.3 1.7l.79.79-.79.79a1 1 0 0 0-.01 1.43zm7 0a1 1 0 0 0 1.41 0l.79-.79.79.79a1 1 0 0 0 1.41-1.41l-.79-.79.79-.79a1 1 0 0 0-1.4-1.43l-.79.79-.79-.79A1 1 0 1 0 30.3 1.7l.79.79-.79.79a1 1 0 0 0-.01 1.43zm7 0a1 1 0 0 0 1.41 0l.79-.79.79.79a1 1 0 0 0 1.41-1.41l-.79-.79.79-.79a1 1 0 0 0-1.4-1.43l-.79.79-.79-.79A1 1 0 0 0 37.3 1.7l.79.79-.79.79a1 1 0 0 0-.01 1.43zM6.68 42.6a5.25 5.25 0 0 0 8.82-3.85 1 1 0 1 1 2 0 5.25 5.25 0 0 0 10.5 0 1 1 0 1 1 2 0 5.25 5.25 0 0 0 10.5 0 1 1 0 1 1 2 0 5.25 5.25 0 0 0 8.82 3.85l.09-.07L55 39.88V37a3 3 0 0 0-3-3h-1V23a3 3 0 0 0-3-3h-1V9a3 3 0 0 0-3-3H14a3 3 0 0 0-3 3v11h-1a3 3 0 0 0-3 3v11H6a3 3 0 0 0-3 3v2.88l3.59 2.65zM16 31a1 1 0 1 1-2 0v-6a1 1 0 0 1 2 0zm4 0a1 1 0 1 1-2 0v-6a1 1 0 0 1 2 0zm4 0a1 1 0 1 1-2 0v-6a1 1 0 0 1 2 0zm4 0a1 1 0 1 1-2 0v-6a1 1 0 0 1 2 0zm4 0a1 1 0 1 1-2 0v-6a1 1 0 0 1 2 0zm4 0a1 1 0 1 1-2 0v-6a1 1 0 0 1 2 0zm4 0a1 1 0 1 1-2 0v-6a1 1 0 0 1 2 0zm4 0a1 1 0 1 1-2 0v-6a1 1 0 0 1 2 0zm2-6a1 1 0 0 1 2 0v6a1 1 0 1 1-2 0zM13 13h.25a6.21 6.21 0 0 0 5.25-2.89 6.21 6.21 0 0 0 10.5 0 6.21 6.21 0 0 0 10.5 0A6.21 6.21 0 0 0 44.75 13H45v2h-.25a6.21 6.21 0 0 0-5.25 2.89 6.21 6.21 0 0 0-10.5 0 6.21 6.21 0 0 0-10.5 0A6.21 6.21 0 0 0 13.25 15H13zm-3 12a1 1 0 0 1 2 0v6a1 1 0 1 1-2 0z" fill="#fff" data-name="Layer 1"/></svg>