<svg xmlns="http://www.w3.org/2000/svg" viewBox="0 0 55.1 53.91"><title>advantage-11</title><path d="M29 33a3 3 0 0 0-3 3h2a1 1 0 1 1 2 0h2a3 3 0 0 0-3-3zm8 1a3 3 0 0 0-3 3h2a1 1 0 1 1 2 0h2a3 3 0 0 0-3-3zm7.52-3.8L48 17.26a1 1 0 0 0 0-.26 2 2 0 0 0-2-2h-2a2 2 0 0 0-1 .28V1a1 1 0 0 0-1-1H11a1 1 0 0 0-1 1v49a1 1 0 0 0 1 1h15.32A18.75 18.75 0 0 0 55.1 35.12V35c0-3-6.18-4.26-10.58-4.8zm-9.17-15H39v3.66a5.34 5.34 0 0 1-5.34 5.34H30v-3.63a5.34 5.34 0 0 1 5.34-5.34zM23.41 9.59L26 7l2.59 2.59a5.34 5.34 0 0 1 0 7.55L26 19.73l-2.59-2.59a5.34 5.34 0 0 1 0-7.55zM14 18.89v-3.66h3.66A5.34 5.34 0 0 1 23 20.57v3.66h-3.66A5.34 5.34 0 0 1 14 18.89zm22.31 33a16.68 16.68 0 0 1-9.25-2.79l-.37-.26q-.43-.3-.84-.63l-.3-.24q-.53-.45-1-.94l-.18-.18c-.32-.33-.64-.67-.93-1l-.05-.06q-.48-.58-.91-1.21l-.1-.15a16.76 16.76 0 0 1-1.44-2.64l-.1-.23c-.19-.45-.36-.91-.51-1.38l-.08-.18c-.13-.43-.24-.86-.34-1.3l-.06-.26c0-.23-.07-.46-.11-.7 3.84 2 11.77 2.6 16.56 2.6s12.72-.6 16.56-2.6a16.8 16.8 0 0 1-16.55 14.17zm0-13.6C25.24 38.31 19.53 36 19.53 35s5.71-3.29 16.79-3.29h1.73l-.19.74a1 1 0 0 0 .73 1.21 1 1 0 0 0 .25 0 1 1 0 0 0 1-.76l.45-1.9L44 17.26a1 1 0 0 0 0-.26h2l-3.72 13.8-.6 2.29a1 1 0 0 0 1.94.5l.38-1.43c6.83.81 9.1 2.38 9.1 2.86 0 .98-5.71 3.29-16.79 3.29zM8 0H1a1 1 0 0 0-1 1v46a1 1 0 0 0 .6.92l7 3A1 1 0 0 0 8 51a1 1 0 0 0 1-1V1a1 1 0 0 0-1-1z" fill="#fff" data-name="Layer 1"/></svg>