<svg xmlns="http://www.w3.org/2000/svg" viewBox="0 0 58.99 60"><title>advantage-9</title><path d="M59 12.11a1.1 1.1 0 0 0-.09-.43 1.24 1.24 0 0 0 0-.29l-4.12-9A4.13 4.13 0 0 0 51 0H9a4.11 4.11 0 0 0-3.75 2.39l-4.06 8.83-.05.14a1.28 1.28 0 0 0 0 .42 1.27 1.27 0 0 0-.1.5V19a8 8 0 0 0 1 3.86v7.35A3.75 3.75 0 0 0 1.07 32a3.94 3.94 0 0 0 .1 1.83A1.29 1.29 0 0 1 1 34.94a5.79 5.79 0 0 0-.53 5.37 3.62 3.62 0 0 0 .37.69 1.33 1.33 0 0 1 .22 1.1 4.13 4.13 0 0 0-.11.63 8.26 8.26 0 0 0 .25 2.46 4.42 4.42 0 0 0 1.21 2.55 2.61 2.61 0 0 0 1.59.63V52H1.08A1.07 1.07 0 0 0 0 53.25L1.15 60H58V22.86A8 8 0 0 0 59 19zM8.29 25h-.24l-.44-.09-.28-.07-.39-.13-.27-.1a5.59 5.59 0 0 1-.55-.27l-.27-.16-.32-.21-.23-.17-.39-.33-.11-.1a6 6 0 0 1-.49-.55 6.23 6.23 0 0 1-.43-.63l-.11-.17v-.06A6 6 0 0 1 3 19v-6h12v6a6 6 0 0 1-6 6 6.07 6.07 0 0 1-.71 0zM31 13h12v6a6 6 0 0 1-12 0zM51 2a2.12 2.12 0 0 1 1.92 1.23L56.49 11H44.83L44 6.46 43.19 2zM18.83 2H29v9H17.19L18 6.5zM3.16 44.8a6.62 6.62 0 0 1-.21-1.87A2.13 2.13 0 0 1 3 42.6a3.35 3.35 0 0 0-.56-2.78 1.71 1.71 0 0 1-.18-.32 3.77 3.77 0 0 1 .35-3.45 3.26 3.26 0 0 0 .47-2.75 2 2 0 0 1-.05-.9 1.74 1.74 0 0 1 .52-1l.07-.05a1.35 1.35 0 0 1 .25-.17l.91-.74.22-.1.18-.07a1.64 1.64 0 0 1 .42-.05h.32a2.49 2.49 0 0 1 1 .35l.22.18a2.42 2.42 0 0 1 .26.25 1.67 1.67 0 0 1 .2.28 1.64 1.64 0 0 1 .13 1.05 3 3 0 0 0 .62 2.56 1.22 1.22 0 0 1 .25.52 2 2 0 0 1 0 .39 4.13 4.13 0 0 1-.34 1.48 5.62 5.62 0 0 1-.66 1.24A3.23 3.23 0 0 0 7.08 41a3.86 3.86 0 0 0 .26.88 2.64 2.64 0 0 1 .2.89 2.68 2.68 0 0 1-.1.91 3.24 3.24 0 0 1-.18.45 3.59 3.59 0 0 1-.55.82 4.42 4.42 0 0 1-.33.33 5.44 5.44 0 0 1-1.11.76 3.36 3.36 0 0 1-.55.23 1.79 1.79 0 0 1-.49.08.63.63 0 0 1-.44-.14 3 3 0 0 1-.63-1.41zM6 47.93l.17-.08a7.45 7.45 0 0 0 1.14-.72L8.71 52H6zM7.15 58H2.84l-.67-4h5.64zM49 47v-3a1 1 0 1 1 2 0v3a1 1 0 1 1-2 0zm7 11h-2V29H36v29H9.18l.67-4H34V29H8.11a4.48 4.48 0 0 0-1.91-.74 4.11 4.11 0 0 0-.74 0h-.17a3.75 3.75 0 0 0-.63.1H4.6a3 3 0 0 0-.61.23v-3.34a7.87 7.87 0 0 0 1.89 1.12c.22.09.45.18.68.25h.12l.59.15h.18l.57.09h.97a7.84 7.84 0 0 0 1-.07h.28q.37-.06.73-.15l.25-.06a7.71 7.71 0 0 0 .9-.32l.13-.06q.37-.17.72-.37l.24-.14q.32-.2.61-.43l.17-.13a8.13 8.13 0 0 0 .69-.63l.14-.16q.25-.27.48-.57l.17-.22c.16-.22.3-.44.44-.68l.06-.1.06.1c.13.23.28.46.44.68l.17.22q.23.29.48.57l.14.16a8.11 8.11 0 0 0 .69.63l.17.13q.3.23.61.43l.24.14q.35.2.72.37l.13.06a7.72 7.72 0 0 0 .9.32l.25.06q.36.09.73.15h.28a7.23 7.23 0 0 0 2 0h.28q.37-.06.73-.15l.25-.06a7.71 7.71 0 0 0 .9-.32l.13-.06q.37-.17.72-.37l.24-.14q.32-.2.61-.43l.17-.13a8.11 8.11 0 0 0 .69-.63l.14-.16q.25-.27.48-.57l.17-.22a8.06 8.06 0 0 0 .44-.68l.06-.1.06.1a8.06 8.06 0 0 0 .44.68l.17.22q.23.29.48.57l.14.16a8.13 8.13 0 0 0 .69.63l.17.13q.3.23.61.43l.24.14q.35.2.72.37l.13.06a7.73 7.73 0 0 0 .9.32l.25.06q.36.09.73.15h.28a7.23 7.23 0 0 0 2 0h.28q.37-.06.73-.15l.25-.06a7.71 7.71 0 0 0 .9-.32l.13-.06q.37-.17.72-.37l.24-.14q.32-.2.61-.43l.17-.13a8.13 8.13 0 0 0 .69-.63l.14-.16q.25-.27.48-.57l.17-.22c.16-.22.3-.44.44-.68l.06-.1.06.1c.13.23.28.46.44.68l.17.22q.23.29.48.57l.14.16a8.11 8.11 0 0 0 .69.63l.17.13q.3.23.61.43l.24.14q.35.2.72.37l.13.06a7.73 7.73 0 0 0 .9.32l.25.06q.36.09.73.15h.28A7.85 7.85 0 0 0 51 27h.97l.57-.09h.18l.59-.15h.12c.23-.07.46-.15.68-.25A7.87 7.87 0 0 0 56 25.25zM27.7 34.71l-3 3a1 1 0 1 1-1.41-1.41l3-3a1 1 0 1 1 1.41 1.41zm.58 1.58A1 1 0 1 1 28 37a1 1 0 0 1 .28-.71zm-5.58-1.58l-4 4a1 1 0 1 1-1.41-1.41l4-4a1 1 0 0 1 1.41 1.41zM23 39a1 1 0 0 1-1 1 1 1 0 0 1-1-1 1 1 0 1 1 2 0zm-5.71 3.29l2-2a1 1 0 0 1 1.41 1.41l-2 2a1 1 0 1 1-1.41-1.41zm0 5l9-9a1 1 0 1 1 1.41 1.41l-9 9a1 1 0 0 1-1.41-1.41z" fill="#fff" data-name="Layer 1"/></svg>