<svg xmlns="http://www.w3.org/2000/svg" viewBox="0 0 60 60"><title>advantage-10</title><path d="M57.49 27H54v-7.27A2.74 2.74 0 0 0 51.27 17H50V0H10v2H7v2H4v6H2.73A2.74 2.74 0 0 0 0 12.73V58h.06a2.56 2.56 0 0 0 2.51 2h44.75a2.54 2.54 0 0 0 2.45-1.81L60 30.15V30c0-1.75-1.06-3-2.51-3zM18 5h10a1 1 0 1 1 0 2H18a1 1 0 1 1 0-2zm0 7h24a1 1 0 0 1 0 2H18a1 1 0 0 1 0-2zm0 7h24a1 1 0 1 1 0 2H18a1 1 0 1 1 0-2zM2 51.53v-38.8a.73.73 0 0 1 .73-.73H4v34zM6 6h1v31.81l-1 2.74zm46 21H12.73a2.54 2.54 0 0 0-2.45 1.81L9 32.33V4h1v22h40v-7h1.27a.73.73 0 0 1 .73.73z" fill="#fff" data-name="Layer 1"/></svg>