<svg xmlns="http://www.w3.org/2000/svg" viewBox="0 0 197.35 184.95"><defs><clipPath id="a"><path fill="none" d="M0 0h197.35v184.95H0z"/></clipPath></defs><title>circle-check-mark</title><g clip-path="url(#a)" fill="#77a008" data-name="Layer 1"><path d="M194.11 11a11.14 11.14 0 0 0-15.7 0L89 100.36l-25-25a11.102 11.102 0 0 0-15.7 15.7L81 123.73l.08.07.11.12a11.14 11.14 0 0 0 15.7 0l97.25-97.24a11.14 11.14 0 0 0 0-15.71"/><path d="M165.28 78.56a74.2 74.2 0 1 1-31.74-47.76 9.16 9.16 0 0 0 11.55-1.17 9.21 9.21 0 0 0-1.45-14.18A92.49 92.49 0 0 0 27.09 157.87 92.48 92.48 0 0 0 185 92.48 93.4 93.4 0 0 0 183.31 75a9.19 9.19 0 1 0-18 3.55"/></g></svg>