<svg xmlns="http://www.w3.org/2000/svg" width="381" height="381" viewBox="0 0 381 381"><defs><style>.cls-1{fill-rule:evenodd}</style></defs><path id="Rounded_Rectangle_2_copy" data-name="Rounded Rectangle 2 copy" class="cls-1" d="M110 0h161a110 110 0 0 1 110 110v161a110 110 0 0 1-110 110H110A110 110 0 0 1 0 271V110A110 110 0 0 1 110 0zm-4 35s44.168-2 88.667-2C234.4 33 275 35 275 35a70 70 0 0 1 70 70s2 45.305 2 89c0 40.7-2 80-2 80a70 70 0 0 1-70 70s-40.818 2-82.333 2c-42.96 0-86.667-2-86.667-2a70 70 0 0 1-70-70s-1-39.3-1-80c0-43.695 1-89 1-89a70 70 0 0 1 70-70zm186 30a23 23 0 1 1-23 23 23 23 0 0 1 23-23zM190.5 92A98.5 98.5 0 1 1 92 190.5 98.5 98.5 0 0 1 190.5 92zm0 34a63.5 63.5 0 1 1-63.5 63.5 63.5 63.5 0 0 1 63.5-63.5z"/></svg>