<svg xmlns="http://www.w3.org/2000/svg" viewBox="0 0 335.67 336.03"><defs><clipPath id="a"><path fill="none" d="M.01 0h335.65v336.01H.01z"/></clipPath></defs><title>ljr</title><g data-name="Layer 1"><path fill="none" d="M.01 0h335.65v336.01H.01z"/><path fill="none" d="M.01 0h335.65v336.01H.01z"/><path d="M178.45 21.59A157 157 0 0 0 116 34.48L81.52 0h-.08A157.72 157.72 0 0 0 0 81.91l34.57 34.53A157.67 157.67 0 0 1 116 34.54h.06l127.83 127.64a157.82 157.82 0 0 0-81.43 81.91L34.57 116.48a155.32 155.32 0 0 0-13.32 62.32 157.2 157.2 0 1 0 157.2-157.21zm27.27 231.78A91.77 91.77 0 0 1 253 205.78l12.39 59.93z" fill="#fff"/><path fill="none" d="M.01 0h335.65v336.01H.01z"/><g clip-path="url(#a)"><path d="M254.78 214.23l10.63 51.5c0-.37-5.27-25.85-10.63-51.5" fill="#fff"/></g><path d="M253 205.81l-9.14-43.61a157.8 157.8 0 0 0-81.42 81.91l43.3 9.25A92.16 92.16 0 0 1 253 205.81" fill="#fff"/><path fill="none" d="M.01 0h335.65v336.01H.01z"/></g></svg>