<svg xmlns="http://www.w3.org/2000/svg" viewBox="0 0 46 42"><title>plus-12</title><path d="M9.2 22.15a2.3 2.3 0 0 0-2.3 2.29v9.16a2.3 2.3 0 0 0 4.6 0v-9.16a2.3 2.3 0 0 0-2.3-2.29zm9.2 0a2.3 2.3 0 0 0-2.3 2.29v3.82a2.3 2.3 0 0 0 4.6 0v-3.82a2.3 2.3 0 0 0-2.3-2.29zm21-6.11L26.8 3.47a3.81 3.81 0 0 0-7.6 0L6.58 16H0v26h46V16zM23 1.53a2.29 2.29 0 1 1-2.3 2.29A2.3 2.3 0 0 1 23 1.53zm-3.51 3.81a3.83 3.83 0 0 0 7 0L37.25 16H8.75zM13 33.6a3.83 3.83 0 0 1-7.67 0v-9.16a3.83 3.83 0 0 1 7.67 0zm9.2-5.35a3.82 3.82 0 0 1-6.13 3v5.36a.77.77 0 0 1-1.53 0V24.44a3.83 3.83 0 0 1 7.67 0zm8.43 0a.76.76 0 1 1 0 1.53H25.3v6.11h5.37a.76.76 0 1 1 0 1.53h-6.14a.76.76 0 0 1-.77-.76V21.38a.76.76 0 0 1 .77-.76h6.13a.76.76 0 1 1 0 1.53H25.3v6.11zm10 8.4a.76.76 0 0 1 0 .23V37l-.1.15-.06.09h-.07l-.18.12a.77.77 0 0 1-.28.05.77.77 0 0 1-.27-.05h-.08l-.16-.11-.06-.05a.76.76 0 0 1-.13-.19L34.5 25.35v11.3a.77.77 0 0 1-1.53 0V21.38a.76.76 0 0 1 0-.23v-.06l.1-.15.06-.09h.07l.18-.12H33.67a.75.75 0 0 1 .24 0l.17.12h.07v.07l.12.18 4.83 11.59V21.38a.77.77 0 0 1 1.53 0z" fill="#f1ad05" data-name="Layer 1"/></svg>