<svg xmlns="http://www.w3.org/2000/svg" viewBox="0 0 51.49 49.63"><title>plus-5</title><path d="M49.82 4.29h-9.23L33.18.12 32.93 0h-.22a1 1 0 0 0-1 1v47.67a1 1 0 0 0 1 1H33l7.35-4.14h.86v3.43h8.58v-3.48a1.67 1.67 0 0 0 1.67-1.67V6a1.67 1.67 0 0 0-1.64-1.71zM35.18 20.52a.86.86 0 0 1 0-1.72 3.45 3.45 0 0 1 3.44 3.44v5.13a3.45 3.45 0 0 1-3.44 3.44.86.86 0 0 1 0-1.72 1.73 1.73 0 0 0 1.73-1.72v-5.12a1.73 1.73 0 0 0-1.73-1.73zm6.87 6.86a6.88 6.88 0 0 1-6.87 6.87.86.86 0 0 1 0-1.72 5.16 5.16 0 0 0 5.16-5.16v-5.12a5.16 5.16 0 0 0-5.16-5.16.86.86 0 0 1 0-1.72 6.88 6.88 0 0 1 6.87 6.88zm6 10.38h-2.57a.86.86 0 0 1 0-1.72h2.57a.86.86 0 1 1 0 1.72zm0-2.57h-2.57a.86.86 0 0 1 0-1.72h2.57a.86.86 0 1 1 0 1.72zm0-18.88h-2.57a.86.86 0 0 1 0-1.72h2.57a.86.86 0 1 1 0 1.72zm0-2.57h-2.57a.86.86 0 1 1 0-1.72h2.57a.86.86 0 1 1 0 1.72zM24 4.29H1.67A1.67 1.67 0 0 0 0 6v37.81a1.67 1.67 0 0 0 1.67 1.67v3.43h8.63v-3.43H24v2.57h6.87V1.72H24zm0 34.33h-4.56v-.11l2.56-5.9h2zm-9.14-6l2.62 5.9v.11h-11l2.67-6zm-3.27-1.72l2.67-6H20l2.67 6H11.62zm5.15 1.72h3.37l-1.66 3.78zm7.26-3l-2.11-4.75H24zm0-6.47h-7.23l2.67-6H24zm0-7.72h-5.68l-3.43 7.72h-1.72l-3.43 7.74H8l-4.2 9.44H24v1.72H4.59a2 2 0 0 1-2-2V9.74a2 2 0 0 1 2-2H24zm3.46-11.64a1.29 1.29 0 1 1-1.29 1.29 1.29 1.29 0 0 1 1.29-1.29zm0 5.15a1.29 1.29 0 1 1-1.29 1.29 1.29 1.29 0 0 1 1.29-1.29zm0 5.15a1.29 1.29 0 1 1-1.29 1.29 1.29 1.29 0 0 1 1.29-1.29zm0 18.88a1.29 1.29 0 1 1-1.29 1.29A1.29 1.29 0 0 1 27.46 33zm0 5.15a1.29 1.29 0 1 1-1.29 1.29 1.29 1.29 0 0 1 1.29-1.29zm0 5.15a1.29 1.29 0 1 1-1.29 1.29 1.29 1.29 0 0 1 1.29-1.29z" fill="#f1ad05" data-name="Layer 1"/></svg>