<svg xmlns="http://www.w3.org/2000/svg" viewBox="0 0 50 43"><title>plus-18</title><path d="M43.58 33.32a.86.86 0 0 0-.24.59.83.83 0 0 0 .24.59.85.85 0 0 0 1.18 0 .83.83 0 0 0 0-1.17.89.89 0 0 0-1.18-.01zM19.7 31.64l-3-1.54v-.32a6 6 0 0 0 2.84-3.61A2.46 2.46 0 0 0 20.83 24v-.83a2.46 2.46 0 0 0-1-1.94c-.52-3.13-2.72-4.71-6.54-4.71h-.53a4.25 4.25 0 0 1-2.69-.61 3.37 3.37 0 0 1-.76-.66 1 1 0 0 0-1.53 0 1 1 0 0 0-.24.78c0 .31.09.67.17 1.06.16.81.16.81-.07 1.29-.08.18-.19.41-.31.7a9.13 9.13 0 0 0-.58 2.19 2.46 2.46 0 0 0-.94 1.93v.8a2.46 2.46 0 0 0 1.32 2.18 6 6 0 0 0 2.87 3.6v.31l-3.14 1.54A3.53 3.53 0 0 0 5 34.74v1.1c0 .66 0 2.22 8.33 2.22s8.33-1.55 8.33-2.22v-1a3.52 3.52 0 0 0-1.96-3.2zm6.13-11h8.33a.83.83 0 1 0 0-1.65h-8.33a.83.83 0 1 0 0 1.65zm.83 12.4h-.83a.83.83 0 1 0 0 1.65h.83a.83.83 0 1 0 0-1.65zm5 0H30a.83.83 0 1 0 0 1.65h1.67a.83.83 0 1 0 0-1.65zm4.17 0H35a.83.83 0 1 0 0 1.65h.83a.83.83 0 1 0 0-1.65zm5 0h-1.66a.83.83 0 1 0 0 1.65h1.67a.83.83 0 1 0 0-1.65zM44.17 24H25.83a.83.83 0 1 0 0 1.65h18.34a.83.83 0 1 0 0-1.65zm0 5H25.83a.83.83 0 1 0 0 1.65h18.34a.83.83 0 1 0 0-1.65zM46.1 8.27H30.83V1.91A1.92 1.92 0 0 0 28.91 0h-7.82a1.92 1.92 0 0 0-1.93 1.91v6.36H3.9A3.89 3.89 0 0 0 0 12.14v27A3.89 3.89 0 0 0 3.9 43h42.2a3.89 3.89 0 0 0 3.9-3.87v-27a3.89 3.89 0 0 0-3.9-3.86zM25 2.48a3.31 3.31 0 1 1-3.33 3.31A3.32 3.32 0 0 1 25 2.48zm23.33 36.65a2.23 2.23 0 0 1-2.23 2.21H3.9a2.23 2.23 0 0 1-2.23-2.21v-27A2.23 2.23 0 0 1 3.9 9.92h15.27v3a1.92 1.92 0 0 0 1.93 1.91h7.81A1.92 1.92 0 0 0 30.83 13v-3H46.1a2.23 2.23 0 0 1 2.23 2.21z" fill="#f1ad05" data-name="Layer 1"/></svg>