<svg xmlns="http://www.w3.org/2000/svg" viewBox="0 0 51.47 51.48"><title>plus-6</title><path d="M.86 26.6a.86.86 0 0 0 .86-.86A24 24 0 0 1 40.59 6.86H36a.86.86 0 1 0 0 1.72h7.72V.86a.86.86 0 0 0-1.72 0v5A25.72 25.72 0 0 0 0 25.74a.86.86 0 0 0 .86.86zm8.63 16.82a.86.86 0 1 0-.58 1.49.88.88 0 0 0 .63-.28.86.86 0 0 0-.05-1.21zm-3-1.84a.86.86 0 0 0-.07 1.21.83.83 0 0 0 .64.29.86.86 0 1 0-.58-1.5zm-.29-1.87a.86.86 0 1 0-.7 1.36.84.84 0 0 0 .5-.16.86.86 0 0 0 .2-1.2zm4 5.48a.85.85 0 0 0 .18 1.2.83.83 0 0 0 .51.16.85.85 0 0 0 .7-.34.87.87 0 0 0-.19-1.21.86.86 0 0 0-1.2.19zm3.27 1.2a.86.86 0 0 0-.88 1.48.82.82 0 0 0 .41.13.86.86 0 0 0 .45-1.6zm37.11-18.83a.86.86 0 1 0-.86-.89.86.86 0 0 0 .89.89zm-49.5 1.6a.86.86 0 1 0-.18-1.7.86.86 0 0 0 .1 1.71zm.48 2.52A.86.86 0 0 0 1.21 30a.85.85 0 0 0 .17 1.69zm14.11 15.88a.85.85 0 0 0-1.14.41.86.86 0 0 0 .41 1.14.9.9 0 0 0 .36.08.86.86 0 0 0 .37-1.63zM3.74 35.4a.86.86 0 0 0-1.57.69.87.87 0 0 0 .79.52.82.82 0 0 0 .34-.08.86.86 0 0 0 .44-1.13zm-.88-2.32a.85.85 0 0 0-1.07-.56A.86.86 0 0 0 2 34.2a.93.93 0 0 0 .27 0 .86.86 0 0 0 .59-1.12zm2 4.54a.86.86 0 1 0-.74 1.28.84.84 0 0 0 .42-.11.86.86 0 0 0 .33-1.17zm20.42 12.14a.86.86 0 0 0 0 1.72.85.85 0 0 0 .86-.84.86.86 0 0 0-.86-.88zm22.05-11.62a.87.87 0 0 0-1.18.28.86.86 0 0 0 .27 1.18.89.89 0 0 0 .45.13.85.85 0 0 0 .73-.4.86.86 0 0 0-.27-1.19zm-2.6 2.32a.86.86 0 0 0 .15 1.2.88.88 0 0 0 .53.18.86.86 0 1 0-.68-1.38zm-1.62 1.88a.85.85 0 0 0 0 1.21.85.85 0 0 0 1.21 0 .86.86 0 0 0-1.24-1.18zm5.39-6.49a.86.86 0 1 0-.76 1.54.83.83 0 0 0 .38.09.86.86 0 0 0 .38-1.63zM41.3 44a.86.86 0 1 0 1.21.1.86.86 0 0 0-1.21-.1zm9.2-15.63a.87.87 0 0 0-1 .73.85.85 0 0 0 .73 1h.12a.86.86 0 0 0 .12-1.71zm-1.07 5a.86.86 0 0 0-.59 1.61.88.88 0 0 0 .29.05.86.86 0 0 0 .3-1.67zM50.1 31a.86.86 0 0 0-.42 1.67h.21A.86.86 0 0 0 50.1 31zM30.22 49.35a.86.86 0 0 0 .16 1.7h.15a.87.87 0 0 0 .69-1 .86.86 0 0 0-1-.7zm-2.46.33a.86.86 0 0 0 .08 1.72h.07a.84.84 0 0 0 .78-.92.86.86 0 0 0-.93-.79zM18 48.49a.86.86 0 1 0-.56 1.62 1.06 1.06 0 0 0 .28 0 .86.86 0 0 0 .28-1.62zm4.83 1.11a.86.86 0 1 0-.21 1.7h.1a.86.86 0 0 0 .1-1.71zm-2.45-.43a.86.86 0 0 0-.38 1.67h.2a.86.86 0 0 0 .19-1.69zm12.28-.39a.85.85 0 0 0-.57 1.06.86.86 0 0 0 .82.61.89.89 0 0 0 .25 0 .86.86 0 1 0-.5-1.64zm4.58-1.91a.86.86 0 0 0 .41 1.61.77.77 0 0 0 .4-.11.85.85 0 0 0-.82-1.5zM35 47.93a.86.86 0 0 0 .33 1.65.92.92 0 0 0 .33-.06.86.86 0 0 0-.66-1.59zm4.35-2.38a.86.86 0 0 0-.21 1.19.84.84 0 0 0 .7.37.86.86 0 1 0-.49-1.56zM25.74 6.86a18.88 18.88 0 1 0 18.88 18.88A18.9 18.9 0 0 0 25.74 6.86zm-.86 3.43a.86.86 0 0 1 1.72 0V12a.86.86 0 0 1-1.72 0zM12 26.6h-1.7a.86.86 0 0 1 0-1.72H12a.86.86 0 0 1 0 1.72zm14.6 14.59a.86.86 0 1 1-1.72 0v-1.71a.86.86 0 1 1 1.72 0zm9.19-6.26a.86.86 0 0 1-1.21 0l-7.1-7.1a3.39 3.39 0 0 1-1.73.49 3.43 3.43 0 0 1-.86-6.74v-4.42a.86.86 0 0 1 1.72 0v4.41a3.39 3.39 0 0 1 2.09 5l7.1 7.1a.86.86 0 0 1-.01 1.26zm5.4-10a.86.86 0 0 1 0 1.72h-1.72a.86.86 0 0 1 0-1.72zm-15.45-1.76a1.72 1.72 0 1 0 1.72 1.72 1.72 1.72 0 0 0-1.72-1.72z" fill="#f1ad05" data-name="Layer 1"/></svg>