<svg xmlns="http://www.w3.org/2000/svg" viewBox="0 0 47.2 49.77"><title>plus-1</title><path d="M6.87 45.48a4.29 4.29 0 1 0-4.29-4.29 4.3 4.3 0 0 0 4.29 4.29zM47.2 30a3.64 3.64 0 0 0-2.33-3.63A4.29 4.29 0 0 0 42 18.88H29.72l.63-2.88a29.78 29.78 0 0 0 .1-9.61c-.44-3-3.1-6.35-6-6.35h-.21C22.89 0 20.6.78 20.6 6c0 12.72-5.74 12.87-6 12.87h-.86v-1.71H0v32.61h13.73v-1.71h24a4.29 4.29 0 0 0 3.37-6.94 4.29 4.29 0 0 0 2.57-6.87A4.3 4.3 0 0 0 47.2 30zM12 48.06H1.72V18.88H12z" fill="#f1ad05" data-name="Layer 1"/></svg>