<svg xmlns="http://www.w3.org/2000/svg" viewBox="0 0 39 42.93"><title>plus-16</title><path d="M19.09 0a.71.71 0 0 1 .42.65v.72a.72.72 0 0 1-1.44 0V.65a.71.71 0 0 1 .4-.65L.39 9.33l18.41 9.13L37.9 9zm.41 14.26a.72.72 0 0 1-1.44 0v-1.43a.72.72 0 0 1 1.44 0zm0-4.3a.72.72 0 0 1-1.44 0V8.53a.72.72 0 0 1 1.44 0zm0-4.3a.72.72 0 0 1-1.44 0V4.23a.72.72 0 0 1 1.44 0zm0 14.06v23.21a.73.73 0 0 0 .29-.07l18.81-9.32a.72.72 0 0 0 .4-.64V10.05zm6.07 7.69a.72.72 0 0 1-.66.42.71.71 0 0 1-.3-.07l-1.31-.6a.71.71 0 0 1-.35-1 .72.72 0 0 1 1-.35l1.31.6a.71.71 0 0 1 .31 1zm3.93 1.8a.73.73 0 0 1-1 .35L27.24 29a.72.72 0 0 1-.35-1 .73.73 0 0 1 1-.35l1.31.6a.71.71 0 0 1 .31.96zM33.44 31a.72.72 0 0 1-1 .35l-1.31-.6a.71.71 0 0 1-.35-1 .72.72 0 0 1 1-.35l1.31.6a.71.71 0 0 1 .35 1zM0 32.9a.72.72 0 0 0 .4.64l17.66 8.76V19.73L0 10.77zM15.44 25l1.31-.6a.72.72 0 0 1 1 .35.72.72 0 0 1-.35 1l-1.31.6a.73.73 0 0 1-.3.07.72.72 0 0 1-.66-.42.71.71 0 0 1 .31-1zm-3.93 1.8l1.31-.6a.72.72 0 0 1 1 .35.71.71 0 0 1-.35 1l-1.31.6a.72.72 0 1 1-.61-1.3zm-3.93 1.8l1.3-.6a.72.72 0 0 1 1 .35.72.72 0 0 1-.35 1l-1.31.6a.73.73 0 0 1-.3.07.72.72 0 0 1-.66-.42.71.71 0 0 1 .31-.96zm-3.93 1.8l1.31-.6a.72.72 0 0 1 1 .35.71.71 0 0 1-.35 1l-1.31.6a.72.72 0 1 1-.61-1.3z" fill="#f1ad05" data-name="Layer 1"/></svg>