<svg xmlns="http://www.w3.org/2000/svg" viewBox="0 0 43 43"><title>plus-15</title><path d="M43 21.5A21.5 21.5 0 1 0 3.61 33.41l.15.22a21.69 21.69 0 0 0 18 9.36 21.72 21.72 0 0 0 17.52-9.39l.12-.18A21.38 21.38 0 0 0 43 21.5zm-1.43 0A19.93 19.93 0 0 1 39 31.31a9.78 9.78 0 0 0-9.39-6.95h-4.26a.26.26 0 0 1-.26-.26v-.46a.29.29 0 0 1 .2-.25c4.61-1.73 7.49-8.93 6.89-14a10.7 10.7 0 0 0-3.5-6.66A20.1 20.1 0 0 1 41.57 21.5zm-23.3.57c-3.43-1.27-6.09-7.12-6.09-11.32a9.29 9.29 0 0 1 .14-1.53A5 5 0 0 1 18 8.17a5 5 0 0 0 6.68-2.72A13 13 0 0 1 30.65 9c0 .2.07.4.1.6.53 4.4-2.12 11-6 12.45a1.7 1.7 0 0 0-1.13 1.59v.46a1.7 1.7 0 0 0 1.7 1.7h.16l-4 4-4-4h.16a1.7 1.7 0 0 0 1.7-1.7v-.46a1.69 1.69 0 0 0-1.07-1.57zM14.33 2.76a10.71 10.71 0 0 0-3.58 8c0 4.75 3 11.18 7 12.66a.25.25 0 0 1 .15.24v.46a.26.26 0 0 1-.26.26h-4.25a9.92 9.92 0 0 0-6.57 2.51A9.75 9.75 0 0 0 4 31.31 20 20 0 0 1 14.33 2.76c-2.19 1.97-7.53 2.89 0 0zM10 38v-3.59h1.28c.11 0 .15.2.15.43v4q-.7-.4-1.43-.84zm21.5.91v-4.17c0-.44 0-.34.5-.34.2 0 .93-.13.93.11v3.13c.07.64-.93.93-1.4 1.23z" fill="#f1ad05" data-name="Layer 1"/></svg>