<svg xmlns="http://www.w3.org/2000/svg" viewBox="0 0 49.5 59.65"><title>plus-11</title><path d="M46.45 37.15a8.37 8.37 0 0 0-.45-2.58l3.46-3.46-4.58-4.58a4.47 4.47 0 0 0-3.5-7.84 4.44 4.44 0 0 0-4.46-5 4.65 4.65 0 0 0-.54 0 4.43 4.43 0 0 0 0-.54A4.51 4.51 0 0 0 32 8.65a4.41 4.41 0 0 0-.54 0 4.49 4.49 0 0 0-7.84-3.5L18.38 0 0 18.39l9.24 9.24a4.49 4.49 0 0 0 1.24 6.28l.22.24 10.75 10.71v1.8h-2v13h26v-13h-2v-3a8.42 8.42 0 0 0 3-6.51zm-36-7a2.48 2.48 0 0 1 .68-1.7l.15-.14a2.48 2.48 0 0 1 1.72-.66h10a2.5 2.5 0 0 1 0 5H13a2.5 2.5 0 0 1-2.55-2.5zm7.23-12.48a10 10 0 1 1 7.08 17.06 10.11 10.11 0 0 1-1.51-.12 4.5 4.5 0 0 0 3.84-2.71 4.45 4.45 0 0 1-.29.57 8 8 0 1 0-10-6.83h-2a10 10 0 0 1 2.88-7.96zm25.45 14.15a1 1 0 1 1 0-1.41 1 1 0 0 1 0 1.41zm-2.83 1.41l.71.71L33.94 41l-.71-.71a3.07 3.07 0 0 0-4.24 0l-.71.71-3.54-3.54a1 1 0 0 1 1.41-1.41l2.19 2.19a5.1 5.1 0 0 1 5.52 0l4.38-4.38a5 5 0 0 1 0-5.51l-2.19-2.19a1 1 0 1 1 1.41-1.41L41 28.28l-.7.72a3 3 0 0 0 0 4.23zm-9.9 9.9a1 1 0 1 1 1.41 0 1 1 0 0 1-1.4 0zm-3-13a4.51 4.51 0 0 1-.08.81 4.49 4.49 0 0 0 .13-.79zm-.12 1a4.45 4.45 0 0 1-.22.7 4.47 4.47 0 0 0 .27-.67zm2.12 18.49a3.5 3.5 0 1 1-3.5 3.5 3.5 3.5 0 0 1 3.55-3.47zm15-26.5a2.5 2.5 0 0 1-.94 1.95L40 21.59a2.5 2.5 0 0 1 4.45 1.56zm-5-5a2.5 2.5 0 0 1-.94 1.95L35 16.59a2.5 2.5 0 0 1 4.45 1.56zm-5-5a2.5 2.5 0 0 1-.94 1.95L30 11.59a2.5 2.5 0 0 1 4.45 1.56zM27 5.65a2.5 2.5 0 0 1 1.56 4.45L25 6.59a2.5 2.5 0 0 1 2-.94zm-9.27.71a1 1 0 1 1 0 1.41 1 1 0 0 1-.05-1.41zM7.78 19.09a1 1 0 1 1 0-1.41 1 1 0 0 1 0 1.41zm1.41-2.83l-.71-.71 7.07-7.07.71.71a3.07 3.07 0 0 0 4.24 0l.71-.71L24.75 12a1 1 0 0 1-1.41 1.41l-2.19-2.19a5.11 5.11 0 0 1-5.52 0l-4.38 4.39a5 5 0 0 1 0 5.51l2.19 2.19A1 1 0 1 1 12 24.75l-3.51-3.54.71-.71a3 3 0 0 0-.01-4.24zM23.1 43.64l-.18-.14L14 34.65h2.23l12 12h-4.78v-2.71zm20.35 14h-6v-3.41A7.55 7.55 0 0 0 35 48.65h8.46zM34 46.65l10.38-10.42a6.36 6.36 0 0 1 .07.93 6.45 6.45 0 0 1-2.6 5.19l-.4.3v4z" fill="#f1ad05" data-name="Layer 1"/></svg>