<svg xmlns="http://www.w3.org/2000/svg" viewBox="0 0 37 48"><title>plus-17</title><path d="M28.14 35.15a.49.49 0 0 0-.16.22 2.07 2.07 0 0 1-3.92 0 .49.49 0 0 0-.16-.23.51.51 0 0 0-.18-.08v6.2L26 38.87l2.36 2.4v-6.2a.53.53 0 0 0-.22.08zM25.52 0H0v48h37V11.67zm-5.84 18.4h5.51a.8.8 0 0 1 0 1.6h-5.51a.8.8 0 0 1 0-1.6zm-3.15.8a.82.82 0 0 1-.23.56.77.77 0 0 1-.56.24.82.82 0 0 1-.56-.23.81.81 0 0 1-.18-.57.78.78 0 0 1 .23-.56.81.81 0 0 1 1.12 0 .85.85 0 0 1 .18.56zM7.87 12H15a.8.8 0 0 1 0 1.6H7.87a.8.8 0 0 1 0-1.6zm0 6.4h3.94a.8.8 0 0 1 0 1.6H7.87a.8.8 0 0 1 0-1.6zM7.31 25a.8.8 0 0 1 1.12 1.14.79.79 0 0 1-1.12 0 .85.85 0 0 1-.23-.57.79.79 0 0 1 .23-.57zm2 13.18a.79.79 0 0 1-1.34.57L5.74 36.9c-.78-.66.34-1.79 1.11-1.13l1 .83c.21-1.81.79-3.55 2.52-4.47.9-.47 1.7.91.79 1.38-1.73.91-1.81 2.97-1.87 4.7zm7-1.21c-.27-.49-1.46.45-1.78.57a2.67 2.67 0 0 1-1.33.18 2.71 2.71 0 0 1-2.1-1.55c-.45-.92.91-1.73 1.36-.81.75 1.55 2 .22 3.1-.08a1.84 1.84 0 0 1 2.12.88c.52.94-.84 1.75-1.34.84zm1-10.61h-5.5a.8.8 0 0 1 0-1.6h5.51a.8.8 0 0 1 0 1.6zm14.36 5.19a.5.5 0 0 0-.3.29.52.52 0 0 0 0 .42 2.12 2.12 0 0 1-.11 2 2.09 2.09 0 0 1-1.37.94v9.88l-3.94-4-3.94 4v-9.83a2.1 2.1 0 0 1-1.37-.94 2.12 2.12 0 0 1-.11-2 .52.52 0 0 0 0-.42.5.5 0 0 0-.3-.29 2.12 2.12 0 0 1 0-4 .5.5 0 0 0 .3-.29.52.52 0 0 0 0-.42 2.12 2.12 0 0 1 .11-2 2.09 2.09 0 0 1 2.66-.79.49.49 0 0 0 .7-.3 2.07 2.07 0 0 1 3.92 0 .49.49 0 0 0 .69.29 2.09 2.09 0 0 1 2.65.79 2.12 2.12 0 0 1 .11 2 .52.52 0 0 0 0 .42.5.5 0 0 0 .3.29 2.12 2.12 0 0 1 0 4zM28.34 19.2a.85.85 0 0 1 .23-.57.82.82 0 0 1 1.12 0 .82.82 0 0 1 0 1.14.79.79 0 0 1-1.12 0 .85.85 0 0 1-.23-.57zM23.62 12V.8l11 11.2zm7.54 17.12a2.09 2.09 0 0 1-1.22-1.18 2.15 2.15 0 0 1 0-1.72.49.49 0 0 0 0-.48.49.49 0 0 0-.65-.2 2 2 0 0 1-.89.2 2.08 2.08 0 0 1-2-1.4.5.5 0 0 0-.95 0 2.08 2.08 0 0 1-2 1.4 2 2 0 0 1-.89-.2.49.49 0 0 0-.65.2.48.48 0 0 0 0 .48 2.15 2.15 0 0 1 0 1.72 2.09 2.09 0 0 1-1.22 1.18.51.51 0 0 0 0 1A2.09 2.09 0 0 1 22 31.26 2.15 2.15 0 0 1 22 33a.5.5 0 0 0 .55.71l.18-.06a1.89 1.89 0 0 1 .83-.18 2.08 2.08 0 0 1 2 1.41.5.5 0 0 0 .95 0 2.08 2.08 0 0 1 2-1.41 2 2 0 0 1 .45.05h.13a2 2 0 0 1 .27.09l.17.05A.5.5 0 0 0 30 33a2.15 2.15 0 0 1 0-1.72 2.09 2.09 0 0 1 1.22-1.18.51.51 0 0 0 0-1z" fill="#f1ad05" data-name="Layer 1"/></svg>