<svg xmlns="http://www.w3.org/2000/svg" viewBox="0 0 49.77 51.49"><title>plus-8</title><path d="M41.2 28.32a16.28 16.28 0 0 0-1.71.09 17.25 17.25 0 0 0-5-6.19L28.29 18a7.62 7.62 0 0 0-4.5-1.72h-6.66a7.4 7.4 0 0 0-4.54 1.56l-6.07 4.45A16.84 16.84 0 0 0 1.76 43c1.72 3.39 4 5.34 6.43 5.51h17.12a6.83 6.83 0 0 0 8.93 2.06 22.73 22.73 0 0 0 7 .87c7.95 0 8.57-1.91 8.57-2.49V31.83c-.04-1.74-4.36-3.51-8.61-3.51zM18.06 24c-4.52 0-10.29 6.28-10.29 11.18a.86.86 0 1 1-1.71 0c0-5.9 6.51-12.87 12-12.87a.86.86 0 0 1 0 1.72zm23.14 6a12.07 12.07 0 0 1 6.63 1.71l-.34.13L47 32l-.57.13h-.11l-.68.12h-.11l-.79.1h-.05l-.91.08h-.18l-1 .05H39.94l-1-.05h-.24l-.91-.08h-.05l-.79-.1h-.11l-.68-.12h-.11l-.57-.13-.48-.1-.34-.12A12.07 12.07 0 0 1 41.2 30zM30.92 49.77a5.14 5.14 0 0 1-4.41-2.52 5.26 5.26 0 0 1-.38-.78v-.06a5.09 5.09 0 0 1-.23-.8v-.06a5.08 5.08 0 0 1-.08-.77v-.11a5.27 5.27 0 0 1 .05-.78v-.17a4.9 4.9 0 0 1 .16-.66L26 43a5 5 0 0 1 .26-.63v-.06a5.29 5.29 0 0 1 2.08-2.18 5 5 0 0 1 .63-.3l.16-.06a4.81 4.81 0 0 1 .6-.18h.07a5.33 5.33 0 0 1 .74-.09h.16a4.93 4.93 0 0 1 .74 0h.07a5 5 0 0 1 .75.15 5.23 5.23 0 0 1 .77.29 5.15 5.15 0 0 1-2.19 9.8zm17.14-1c-.56.37-3 1-6.86 1a27.87 27.87 0 0 1-5-.41 6.8 6.8 0 0 0 1-1.55h.63l.7.06h1.18L40 48h4.12l.64-.06h.39l.54-.07.35-.06.46-.09.29-.06.41-.1.24-.07.37-.12.17-.06zm0-3.43a1.85 1.85 0 0 1-.28.14l-.43.15-.56.15h-.08l-.7.14h-.11l-.84.12h-.13l-1 .1h-.13l-1.14.07h-3.42c-.52 0-1-.07-1.5-.12a6.81 6.81 0 0 0 .1-1.18v-.52c.7.07 1.45.11 2.21.14H44.23l.64-.06h.39l.54-.07.35-.06.46-.09.29-.06.41-.1.24-.06.37-.12.17-.06zm0-3.43a1.74 1.74 0 0 1-.28.14l-.43.15-.56.15h-.08l-.7.14h-.11l-.84.12h-.13l-1 .1h-.13l-1.14.07h-3.95l-.71-.03h-.53a6.84 6.84 0 0 0-.82-1.79 30.58 30.58 0 0 0 4.53.29h2.95l.64-.06h.39l.54-.07.35-.06.46-.09.29-.06.41-.1.24-.06.37-.12.17-.06zm0-3.43a1.8 1.8 0 0 1-.28.14l-.43.15-.56.15h-.08l-.7.14h-.11l-.84.12h-.13l-1 .1h-.13l-1.14.07H41.24c-3.9 0-6.3-.61-6.86-1v-1.02l3.37.25a33.76 33.76 0 0 0 3.49.17h2.95l.64-.06h.39l.54-.07.35-.06.46-.09.29-.06.41-.1.24-.07.37-.12.17-.06zm0-3.43a1.8 1.8 0 0 1-.28.14l-.43.15-.56.15h-.08l-.7.14h-.11l-.84.12h-.13l-1 .1h-.13l-1.18.15H41.2c-3.9 0-6.3-.61-6.86-1v-1.11l2.9.22a32.82 32.82 0 0 0 4 .21h2.95l.63-.06h.4l.53-.07.35-.06.46-.08.3-.06.4-.1.25-.07.36-.12.19-.07zM26.63 14v-2a.86.86 0 0 0-.86-.86H15.49a.86.86 0 0 0 0 1.72h9.43v.86h-9.43a.86.86 0 0 0 0 1.72h10.22a4.24 4.24 0 0 0 5.76-.25.86.86 0 1 0-1.22-1.19 2.63 2.63 0 0 1-3.62 0zm-12-5.39A2.49 2.49 0 0 0 17 10.29h6.37a2.49 2.49 0 0 0 2.36-1.69 11.74 11.74 0 0 1 2.19-3.81 2.57 2.57 0 0 0 .87-2.44A2.44 2.44 0 0 0 27.13.48a6.74 6.74 0 0 0-6.6.83.83.83 0 0 1-1 0 6.74 6.74 0 0 0-6.6-.83 2.44 2.44 0 0 0-1.65 1.87 2.57 2.57 0 0 0 .87 2.44 13.52 13.52 0 0 1 2.53 3.81z" fill="#f1ad05" data-name="Layer 1"/></svg>