<svg xmlns="http://www.w3.org/2000/svg" viewBox="0 0 42 40"><title>plus-14</title><path d="M41.62 24.13a2.56 2.56 0 0 0-2.15-1.29A8.09 8.09 0 0 0 36 24l-6 3.64a12.84 12.84 0 0 1-4.51.64 2.27 2.27 0 0 0-.43-2.28 5.79 5.79 0 0 0-2.18-1.9 6.1 6.1 0 0 0 2.32-4.79 6.3 6.3 0 0 0-12.6 0 6.1 6.1 0 0 0 .72 2.87C10.8 20.3 6.61 20 4.9 20v-2.09H0V40h4.9v-2.07H14a29.08 29.08 0 0 0 4.28-.32l9.07-1.36a4.78 4.78 0 0 0 1-.11A4.27 4.27 0 0 0 30.63 35l10.63-8.15a2 2 0 0 0 .36-2.72zM18.9 15.86a3.45 3.45 0 1 1-3.5 3.45 3.48 3.48 0 0 1 3.5-3.45zm21.48 9.91l-10.64 8.17h-.05a2.94 2.94 0 0 1-1.63.81 3.52 3.52 0 0 1-.75.08l-9.23 1.37a27.48 27.48 0 0 1-4.07.3H4.9V21.38c2.55 0 5.77.56 7.55 1.88a7.92 7.92 0 0 0 3.25 1.39h.13l.7.09H20a5 5 0 0 1 1.14.13 4.5 4.5 0 0 1 2.68 1.82c.29.42.41.78.32.95s-.81.53-2 .56H14.7c-2.19 0-3.5 1-3.5 2.76a.7.7 0 0 0 1.4 0c0-.34 0-1.38 2.1-1.38h9.95c3.08 0 4.94-.25 6-.83l6-3.63a7.24 7.24 0 0 1 2.74-1c.34 0 .57.1 1 .71a.63.63 0 0 1-.01.95zm-11-13.36a6.26 6.26 0 0 0 6.3-6.21 6.3 6.3 0 0 0-12.6 0 6.26 6.26 0 0 0 6.32 6.21zm0-9.66a3.45 3.45 0 1 1-3.5 3.45 3.48 3.48 0 0 1 3.52-3.44z" fill="#f1ad05" data-name="Layer 1"/></svg>