<svg xmlns="http://www.w3.org/2000/svg" viewBox="0 0 39 47"><title>plus-13</title><path d="M15.92 5.48h7.16a.79.79 0 0 0 .8-.78V.78a.79.79 0 0 0-.8-.78h-7.16a.79.79 0 0 0-.8.78V4.7a.79.79 0 0 0 .8.78zm10.35-3.91a.78.78 0 1 0 0 1.57h11.14v42.3H1.59V3.13h11.14a.78.78 0 1 0 0-1.57H0V47h39V1.57zM2.39 3.92v40.73h34.22V3.92h-8.75v2.35H11.14V3.92zM18.31 37.6H8A.78.78 0 1 1 8 36h10.31a.78.78 0 1 1 0 1.57zM31 32.9H8a.78.78 0 1 1 0-1.57h23a.78.78 0 1 1 0 1.57zm0-5.48H8a.78.78 0 1 1 0-1.57h23a.78.78 0 1 1 0 1.57zM7.16 21.93a.79.79 0 0 1 .8-.78H19.1a.78.78 0 1 1 0 1.57H8a.79.79 0 0 1-.84-.79zm14.33 0a.76.76 0 0 1 .23-.56.83.83 0 0 1 1.13 0 .77.77 0 0 1 .23.56.8.8 0 0 1-.23.56.83.83 0 0 1-.57.23.79.79 0 0 1-.57-.23.81.81 0 0 1-.22-.56zm9.55.78h-5.57a.78.78 0 1 1 0-1.57H31a.78.78 0 1 1 0 1.57zm0-6.27A.78.78 0 1 1 31 18H8a.78.78 0 1 1 0-1.57zm-12.73-4.7a.78.78 0 1 1 0 1.57H8a.78.78 0 1 1 0-1.57z" fill="#f1ad05" data-name="Layer 1"/></svg>