<svg xmlns="http://www.w3.org/2000/svg" viewBox="0 0 49.77 42.05"><title>plus-9</title><path d="M30.89 0H0v42.05h49.77V0zm-12 40.33H1.72v-.86h17.16zm0-2.57H1.72v-.86h17.16zm0-2.57H1.72v-.86h17.16zm0-2.58H1.72v-.86h17.16zm0-2.57H1.72v-.86h17.16zm0-7.12l-.36-.26-.32-.26a8.79 8.79 0 0 1-.63-.59l-.3-.31c-.18-.2-.35-.41-.52-.62l-.29-.37c-.14-.2-.27-.42-.4-.63s-.18-.29-.26-.44-.21-.43-.31-.64-.15-.33-.22-.5-.15-.45-.22-.68-.11-.34-.16-.51-.11-.53-.15-.79-.06-.3-.08-.45a10.12 10.12 0 0 1 0-2.56c0-.15.06-.3.08-.45s.09-.53.15-.79.11-.34.16-.51.14-.46.22-.68.15-.33.22-.5.19-.43.31-.64.17-.3.26-.44.26-.43.4-.63l.29-.37c.17-.21.33-.42.52-.62l.3-.31c.2-.2.41-.4.63-.59l.32-.26.36-.26zm-6-7.25v.29c0 .31.08.62.14.92v.15c.07.34.16.67.26 1l.09.29q.13.41.29.8l.08.2c.14.32.29.63.45.93l.12.21q.23.41.49.79l.08.12q.32.46.68.89l.05.06q.36.43.77.83h-5.25A5.59 5.59 0 0 0 6 18v-6.9A5.59 5.59 0 0 0 11.14 6h5.34q-.41.4-.77.83l-.05.06q-.36.43-.68.89l-.08.12q-.26.39-.49.79l-.12.21c-.16.3-.31.61-.45.93l-.08.2q-.16.39-.29.8l-.09.29c-.1.33-.19.66-.26 1v.15c-.06.3-.1.61-.14.92v.29c0 .36-.05.72-.05 1.08s-.04.75 0 1.11zm6-11.47l-.16.09h-8.45a.86.86 0 0 0-.85.93v.35a3.87 3.87 0 0 1-3.85 3.87h-.35a.85.85 0 0 0-.66.22.86.86 0 0 0-.28.63v8.61a.86.86 0 0 0 .28.63.84.84 0 0 0 .66.22h.35a3.87 3.87 0 0 1 3.86 3.85v.35a.86.86 0 0 0 .85.93h8.44l.16.09v2.48H1.72V1.72h17.16zm12 2.06l.36.26.32.26c.22.19.43.38.63.59l.3.31c.18.2.35.41.52.62l.29.37c.14.2.27.42.4.63s.18.29.26.44.21.43.31.64.15.33.22.5.15.45.22.68.11.34.16.51.11.52.15.79.06.3.08.45a10.11 10.11 0 0 1 0 2.56c0 .15-.06.3-.08.45s-.09.53-.15.79-.11.34-.16.51-.14.46-.22.68-.15.33-.22.5-.19.43-.31.64-.17.29-.26.44-.26.43-.4.63l-.29.37c-.17.21-.33.42-.52.62l-.3.31c-.2.2-.41.4-.63.59l-.32.26-.36.26zm6 7.25v-.29c0-.31-.08-.62-.14-.92v-.15c-.07-.34-.16-.67-.26-1l-.09-.29q-.13-.41-.29-.8l-.08-.2c-.14-.32-.29-.63-.45-.93l-.12-.21q-.23-.41-.49-.79l-.08-.12q-.32-.46-.68-.89l-.05-.06q-.36-.43-.77-.83h5.34a5.59 5.59 0 0 0 5.13 5.13V18a5.59 5.59 0 0 0-5.13 5.13h-5.44q.41-.4.77-.83l.05-.06q.36-.43.68-.89l.08-.12q.26-.39.49-.79l.12-.21c.16-.3.31-.61.45-.93l.08-.2q.16-.39.29-.8l.09-.29c.1-.33.19-.66.26-1v-.15c.06-.3.1-.61.14-.92v-.29c0-.36.05-.72.05-1.08s.04-.7.01-1.06zm11.17 26.82H30.89v-.86h17.17zm0-2.57H30.89v-.86h17.17zm0-2.57H30.89v-.86h17.17zm0-2.58H30.89v-.86h17.17zm0-2.57H30.89v-.86h17.17zm0-2.57H30.89V25l.16-.09h8.46a.86.86 0 0 0 .86-.86.84.84 0 0 0 0-.24v-.21a3.87 3.87 0 0 1 3.86-3.86h.35a.84.84 0 0 0 .66-.22.86.86 0 0 0 .28-.63v-8.61a.86.86 0 0 0-.28-.63.85.85 0 0 0-.66-.22h-.35a3.87 3.87 0 0 1-3.86-3.86v-.35a.86.86 0 0 0-.85-.93h-8.46l-.16-.09V1.72h17.16zM5.58 8.58a3 3 0 1 0-3-3 3 3 0 0 0 3 3zm38.62 0a3 3 0 1 0-3-3 3 3 0 0 0 2.99 3zM5.58 26.6a3 3 0 1 0-3-3 3 3 0 0 0 3 3zm38.62-6a3 3 0 1 0 3 3 3 3 0 0 0-3.01-3z" fill="#f1ad05" data-name="Layer 1"/></svg>