<svg xmlns="http://www.w3.org/2000/svg" viewBox="0 0 51.51 34.33"><title>plus-2</title><path d="M51.48.71a.83.83 0 0 0-.11-.29.83.83 0 0 0-.2-.22h-.05a.82.82 0 0 0-.21-.1h-.45L.68 10.32a.86.86 0 0 0-.23 1.6l14.26 7.53 2.5 13.89a.85.85 0 0 0 0 .2.82.82 0 0 0 0 .1.84.84 0 0 0 .09.23.87.87 0 0 0 .13.13l.16.09h.07a.88.88 0 0 0 .24 0h.06a.85.85 0 0 0 .61-.27l9.5-6.34 9.94 6.47a.86.86 0 0 0 1.27-.42l12.1-32.22a.85.85 0 0 0 .12-.45.81.81 0 0 0-.02-.15zm-9.93 5.77L21 21.62l-.09.08-.05.06v.06a.86.86 0 0 0-.08.16l-2.36 7.67-1.98-10.3zm-21.91 24.9L22 23.65 25.61 26l1 .68-3.54 2.36z" fill="#f1ad05" data-name="Layer 1"/></svg>