<svg xmlns="http://www.w3.org/2000/svg" viewBox="0 0 51.49 51.49"><title>plus-4</title><path d="M51.49 6.87V0H0v6.87h1.72v34.32H.86a.86.86 0 0 0 0 1.72h24v1.83a3.43 3.43 0 1 0 1.67 0v-1.83h24a.86.86 0 0 0 0-1.72h-.86V6.87zm-43.77 12a.86.86 0 0 1 .86-.87h7.72a.86.86 0 0 1 0 1.72H8.58a.86.86 0 0 1-.86-.84zm.86-3.43h7.72a.86.86 0 0 1 0 1.72H8.58a.86.86 0 0 1 0-1.72zm-.86-1.72a.86.86 0 0 1 .86-.86h4.29a.86.86 0 0 1 0 1.72H8.58a.86.86 0 0 1-.86-.85zm19.74 34.34a1.72 1.72 0 1 1-1.72-1.72 1.72 1.72 0 0 1 1.72 1.72zM42 25.75a.86.86 0 0 1-1.72 0v-3.94L29.44 32.7a.86.86 0 0 1-1.21 0l-7.12-7.12L10.9 35.79a.86.86 0 1 1-1.21-1.21L20.5 23.77a.86.86 0 0 1 1.21 0l7.12 7.12L39.12 20.6h-3.94a.86.86 0 0 1 0-1.72h6a.86.86 0 0 1 .86.86zM1.72 5.15V1.72h48.05v3.43z" fill="#f1ad05" data-name="Layer 1"/></svg>