<svg xmlns="http://www.w3.org/2000/svg" viewBox="0 0 43.77 51.49"><title>plus-7</title><path d="M36.9 30.89h-30a.86.86 0 1 0 0 1.72h30a.86.86 0 1 0 0-1.72zM25.74 26.6H36.9a.86.86 0 1 0 0-1.72H25.74a.86.86 0 1 0 0 1.72zm0-6H36.9a.86.86 0 0 0 0-1.72H25.74a.86.86 0 0 0 0 1.72zm0-6H36.9a.86.86 0 0 0 0-1.72H25.74a.86.86 0 0 0 0 1.72zM36.9 41.19h-30a.86.86 0 1 0 0 1.72h30a.86.86 0 1 0 0-1.72zm-30-3.43h12a.86.86 0 0 0 0-1.72h-12a.86.86 0 0 0 0 1.72zm30-1.76H25.74a.86.86 0 0 0 0 1.72H36.9a.86.86 0 0 0 0-1.72zm-14 1.47a.9.9 0 0 0 .25-.61.87.87 0 0 0-.25-.6.86.86 0 1 0-.61 1.46.9.9 0 0 0 .63-.21zm20-34.08H21.45V.86A.86.86 0 0 0 20.6 0H6.87A.86.86 0 0 0 6 .86v2.57H.86a.86.86 0 0 0-.86.86v46.34a.86.86 0 0 0 .86.86h42a.86.86 0 0 0 .86-.86V4.29a.86.86 0 0 0-.81-.86zM42 49.77H1.72V5.15H6v19.74a.86.86 0 0 0 1.37.69l6.35-4.76 6.35 4.76a.84.84 0 0 0 .23.12h.33a.84.84 0 0 0 .82-.85V5.15H42z" fill="#f1ad05" data-name="Layer 1"/></svg>