<svg xmlns="http://www.w3.org/2000/svg" width="30" height="20" viewBox="0 0 30 20"><defs><style>.cls-1{fill:#fff;fill-rule:evenodd;filter:url(#filter)}</style><filter id="filter" x="959" y="5553" width="30" height="20" filterUnits="userSpaceOnUse"><feFlood result="flood" flood-color="#211c1c"/><feComposite result="composite" operator="in" in2="SourceGraphic"/><feBlend result="blend" in2="SourceGraphic"/></filter></defs><path id="Прямоугольник_15" data-name="Прямоугольник 15" class="cls-1" d="M965.005 5553h18.121a5.793 5.793 0 0 1 5.662 4.93 59.654 59.654 0 0 1 0 10.02 5.856 5.856 0 0 1-5.662 5.05h-18.121a5.887 5.887 0 0 1-5.705-4.96 51.839 51.839 0 0 1-.1-10.02 6.012 6.012 0 0 1 5.81-5.02zm5.987 5.99l7.014 3.48v.06l-7.014 3.48v-7.02z" transform="translate(-959 -5553)"/></svg>